<svg class="dn" height="0" version="1.1" width="0"
  xmlns="http://www.w3.org/2000/svg">
  <defs>
    <g id="hpa-profile">
      <path style="fill:none;stroke-width:3;stroke-linecap:butt;stroke-linejoin:miter;stroke:currentColor;stroke-opacity:1;stroke-miterlimit:4;" d="M 23.353271 7.428223 C 23.353271 10.699219 20.704346 13.35791 17.423096 13.35791 C 14.150391 13.35791 11.501465 10.699219 11.501465 7.428223 C 11.501465 4.157227 14.150391 1.498535 17.423096 1.498535 C 20.704346 1.498535 23.353271 4.157227 23.353271 7.428223 Z M 23.353271 7.428223 " transform="matrix(0.457143,0,0,0.484848,0,0)"/>
      <path style="fill:none;stroke-width:3;stroke-linecap:butt;stroke-linejoin:miter;stroke:currentColor;stroke-opacity:1;stroke-miterlimit:4;" d="M 29.821777 31.001953 L 4.571533 31.001953 C 2.70874 31.001953 1.298828 29.318115 1.777344 27.513428 C 2.939453 23.162842 5.032959 17.998535 7.861328 17.998535 C 13.193359 17.998535 11.663818 22.333008 16.99585 22.333008 C 22.336426 22.333008 20.046387 17.998535 26.138916 17.998535 C 30.001221 17.998535 31.889648 23.428711 32.633057 27.84375 C 32.923584 29.543701 31.547852 31.001953 29.821777 31.001953 Z M 29.821777 31.001953 " transform="matrix(0.457143,0,0,0.484848,0,0)"/>
    </g>

    <g id="hpa-cart">
      <path style="fill:none;stroke-width:3;stroke-linecap:round;stroke-linejoin:miter;stroke:currentColor;stroke-opacity:1;stroke-miterlimit:4;" d="M 1.999512 2 L 2.435303 2 C 3.913574 2 5.169678 3.070312 5.400391 4.53125 L 8.100586 21.46875 C 8.331299 22.929688 9.587402 24 11.057129 24 L 26.489258 24 C 27.941895 24 29.189453 22.960938 29.437256 21.523438 L 31.368408 10.671875 C 31.70166 8.835938 30.283203 7.148438 28.42041 7.148438 L 27.001953 7.148438 " transform="matrix(0.457143,0,0,0.5,0,0)"/>
      <path style=" stroke:none;fill-rule:nonzero;fill:currentColor;fill-opacity:1;" d="M 6.398438 15 C 6.398438 15.550781 5.992188 16 5.484375 16 C 4.980469 16 4.570312 15.550781 4.570312 15 C 4.570312 14.449219 4.980469 14 5.484375 14 C 5.992188 14 6.398438 14.449219 6.398438 15 Z M 6.398438 15 "/>
      <path style=" stroke:none;fill-rule:nonzero;fill:currentColor;fill-opacity:1;" d="M 11.886719 15 C 11.886719 15.550781 11.476562 16 10.972656 16 C 10.464844 16 10.058594 15.550781 10.058594 15 C 10.058594 14.449219 10.464844 14 10.972656 14 C 11.476562 14 11.886719 14.449219 11.886719 15 Z M 11.886719 15 "/>
    </g>

    <g id="hpa-search">
      <path style="fill:none;stroke-width:3;stroke-linecap:butt;stroke-linejoin:miter;stroke:currentColor;stroke-opacity:1;stroke-miterlimit:4;" d="M 26.055176 14.4375 C 26.055176 21.213135 20.560547 26.71582 13.776855 26.71582 C 6.993164 26.71582 1.498535 21.213135 1.498535 14.4375 C 1.498535 7.653809 6.993164 2.15918 13.776855 2.15918 C 20.560547 2.15918 26.055176 7.653809 26.055176 14.4375 Z M 26.055176 14.4375 " transform="matrix(0.484848,0,0,0.484848,0,0)"/>
      <path style="fill:none;stroke-width:3;stroke-linecap:butt;stroke-linejoin:miter;stroke:currentColor;stroke-opacity:1;stroke-miterlimit:4;" d="M 22.961426 23.62207 L 31.001953 31.654541 " transform="matrix(0.484848,0,0,0.484848,0,0)"/>
    </g>

    <g id="bnd-whatsapp">
      <path style=" stroke:none;fill-rule:nonzero;fill:currentColor;fill-opacity:1;" d="M 0 15.699219 L 1.128906 11.515625 C 0.21875 9.882812 -0.0703125 7.980469 0.3125 6.15625 C 0.699219 4.332031 1.730469 2.707031 3.21875 1.578125 C 4.710938 0.449219 6.558594 -0.105469 8.425781 0.015625 C 10.292969 0.136719 12.054688 0.925781 13.386719 2.234375 C 14.71875 3.542969 15.53125 5.289062 15.675781 7.148438 C 15.820312 9.007812 15.289062 10.855469 14.175781 12.355469 C 13.0625 13.855469 11.445312 14.90625 9.617188 15.3125 C 7.792969 15.71875 5.878906 15.457031 4.234375 14.570312 Z M 4.4375 13.003906 L 4.699219 13.160156 C 5.894531 13.863281 7.285156 14.15625 8.664062 13.988281 C 10.039062 13.820312 11.320312 13.207031 12.3125 12.238281 C 13.300781 11.265625 13.9375 10 14.128906 8.628906 C 14.320312 7.261719 14.050781 5.867188 13.363281 4.667969 C 12.675781 3.46875 11.609375 2.527344 10.328125 1.992188 C 9.050781 1.460938 7.628906 1.363281 6.289062 1.71875 C 4.949219 2.074219 3.761719 2.863281 2.917969 3.957031 C 2.074219 5.054688 1.617188 6.398438 1.621094 7.78125 C 1.617188 8.925781 1.9375 10.050781 2.539062 11.027344 L 2.703125 11.296875 L 2.074219 13.632812 Z M 4.4375 13.003906 "/>
      <path style=" stroke:none;fill-rule:evenodd;fill:currentColor;fill-opacity:1;" d="M 10.363281 8.667969 C 10.230469 8.5625 10.070312 8.492188 9.902344 8.453125 C 9.734375 8.417969 9.558594 8.417969 9.390625 8.457031 C 9.140625 8.554688 8.976562 8.933594 8.8125 9.121094 C 8.78125 9.167969 8.730469 9.199219 8.671875 9.210938 C 8.613281 9.222656 8.554688 9.214844 8.503906 9.191406 C 7.578125 8.84375 6.804688 8.210938 6.304688 7.394531 C 6.261719 7.34375 6.242188 7.277344 6.25 7.214844 C 6.257812 7.148438 6.289062 7.089844 6.339844 7.046875 C 6.523438 6.875 6.65625 6.660156 6.730469 6.425781 C 6.746094 6.167969 6.683594 5.914062 6.550781 5.6875 C 6.449219 5.371094 6.253906 5.089844 5.988281 4.875 C 5.851562 4.816406 5.699219 4.796875 5.550781 4.820312 C 5.402344 4.839844 5.265625 4.902344 5.152344 5 C 4.957031 5.15625 4.804688 5.359375 4.703125 5.582031 C 4.597656 5.804688 4.550781 6.050781 4.558594 6.292969 C 4.558594 6.429688 4.578125 6.566406 4.613281 6.703125 C 4.703125 7.019531 4.839844 7.328125 5.023438 7.609375 C 5.15625 7.824219 5.300781 8.03125 5.457031 8.234375 C 5.960938 8.894531 6.59375 9.457031 7.324219 9.886719 C 7.6875 10.105469 8.078125 10.28125 8.488281 10.414062 C 8.910156 10.597656 9.378906 10.667969 9.84375 10.617188 C 10.105469 10.582031 10.355469 10.480469 10.570312 10.328125 C 10.785156 10.179688 10.957031 9.976562 11.070312 9.75 C 11.136719 9.609375 11.15625 9.453125 11.128906 9.304688 C 11.058594 8.996094 10.628906 8.816406 10.363281 8.667969 Z M 10.363281 8.667969 "/>
    </g>
    <g id="sti-close--line">
      <path style="fill:none;stroke-width:3;stroke-linecap:round;stroke-linejoin:miter;stroke:rgb(0%,0%,0%);stroke-opacity:1;stroke-miterlimit:4;" d="M 2.003906 1.998047 L 18.878906 18.878906 " transform="matrix(0.666667,0,0,0.666667,0,0)"/>
      <path style="fill:none;stroke-width:3;stroke-linecap:round;stroke-linejoin:miter;stroke:rgb(0%,0%,0%);stroke-opacity:1;stroke-miterlimit:4;" d="M 18.878906 1.998047 L 1.998047 18.878906 " transform="matrix(0.666667,0,0,0.666667,0,0)"/>
    </g>
    <g id="hpa-delete">
      <path d="M1.03174 0.984222L10.3669 10.3194" stroke="white" stroke-width="1.65906" stroke-linecap="round"/>
      <path d="M10.3647 0.984222L1.02958 10.3194" stroke="white" stroke-width="1.65906" stroke-linecap="round"/>
    </g>

    <g id="bnd-copy-to-clipboard">
      <path d="M5.5 1H12.6C14.8402 1 15.9603 1 16.816 1.43597C17.5686 1.81947 18.1805 2.43139 18.564 3.18404C19 4.03969 19 5.15979 19 7.4V14.5M4.2 19H12.3C13.4201 19 13.9802 19 14.408 18.782C14.7843 18.5903 15.0903 18.2843 15.282 17.908C15.5 17.4802 15.5 16.9201 15.5 15.8V7.7C15.5 6.57989 15.5 6.01984 15.282 5.59202C15.0903 5.21569 14.7843 4.90973 14.408 4.71799C13.9802 4.5 13.4201 4.5 12.3 4.5H4.2C3.0799 4.5 2.51984 4.5 2.09202 4.71799C1.71569 4.90973 1.40973 5.21569 1.21799 5.59202C1 6.01984 1 6.57989 1 7.7V15.8C1 16.9201 1 17.4802 1.21799 17.908C1.40973 18.2843 1.71569 18.5903 2.09202 18.782C2.51984 19 3.0799 19 4.2 19Z" stroke="black" stroke-width="2" stroke-linecap="round" stroke-linejoin="round"/>
    </g>

    <g id="bnd-whastapp">
      <path d="M0 89.3784L6.40429 65.606C1.23939 56.3455 -0.40155 45.5393 1.78258 35.1702C3.96672 24.8012 9.82942 15.565 18.2949 9.15634C26.7603 2.74772 37.2607 -0.403391 47.8691 0.281243C58.4776 0.965876 68.4825 5.44033 76.048 12.8835C83.6134 20.3267 88.232 30.2394 89.0562 40.8026C89.8803 51.3658 86.8548 61.8708 80.5347 70.3902C74.2146 78.9095 65.024 84.8716 54.6492 87.1824C44.2745 89.4932 33.4116 87.9977 24.0539 82.9704L0 89.3784Z" fill="#00D95F"/>
      <path d="M33.0078 65.3871L31.987 64.7816L22.7649 67.2385L25.2218 58.1029L24.5816 57.0475C22.2355 53.2272 20.9957 48.8308 21 44.3476C20.992 38.9408 22.7728 33.6831 26.0648 29.394C29.3569 25.1049 33.9753 22.0253 39.2003 20.635C44.4254 19.2448 49.9636 19.622 54.9519 21.7079C59.9402 23.7938 64.0983 27.4713 66.7784 32.1672C69.4584 36.863 70.5098 42.3136 69.7687 47.6694C69.0276 53.0252 66.5356 57.9855 62.6811 61.7771C58.8266 65.5688 53.8261 67.9789 48.4588 68.6319C43.0915 69.2849 37.659 68.144 33.0078 65.3871Z" fill="#00D95F"/>
      <path d="M14 75.8112L18.452 59.2859C14.8616 52.8484 13.7209 45.3364 15.2392 38.1284C16.7575 30.9203 20.8329 24.4998 26.7177 20.0448C32.6025 15.5898 39.9018 13.3993 47.2763 13.8752C54.6508 14.3512 61.6057 17.4616 66.8649 22.6357C72.124 27.8099 75.3346 34.7007 75.9075 42.0437C76.4804 49.3867 74.3772 56.6894 69.9838 62.6116C65.5904 68.5338 59.2015 72.6784 51.9895 74.2847C44.7775 75.8911 37.2261 74.8515 30.7211 71.3567L14 75.8112ZM31.5274 65.1728L32.5615 65.7842C37.2732 68.5676 42.7764 69.7194 48.2135 69.0602C53.6506 68.4009 58.7162 65.9676 62.6209 62.1395C66.5256 58.3113 69.05 53.3034 69.8007 47.8961C70.5515 42.4887 69.4864 36.9858 66.7715 32.2447C64.0565 27.5036 59.8443 23.7908 54.7911 21.6848C49.7379 19.5789 44.1276 19.198 38.8346 20.6016C33.5416 22.0053 28.8631 25.1145 25.5282 29.4449C22.1933 33.7753 20.3894 39.0835 20.3975 44.5423C20.3931 49.0686 21.6491 53.5073 24.0257 57.3643L24.6742 58.4299L22.1853 67.6534L31.5274 65.1728Z" fill="white"/>
      <path fill-rule="evenodd" clip-rule="evenodd" d="M54.9281 48.0429C54.3978 47.6349 53.7768 47.3478 53.1125 47.2033C52.4482 47.0589 51.758 47.0609 51.0947 47.2093C50.098 47.6042 49.454 49.0957 48.8099 49.8415C48.6741 50.0203 48.4746 50.1457 48.2487 50.1942C48.0229 50.2426 47.7863 50.2108 47.5832 50.1047C43.9343 48.7418 40.8757 46.2424 38.9043 43.0124C38.7362 42.8109 38.6566 42.555 38.6823 42.2986C38.7081 42.0422 38.8371 41.8053 39.0423 41.6379C39.7606 40.9597 40.288 40.1198 40.5757 39.1958C40.6396 38.1765 40.3947 37.1613 39.8703 36.2711C39.4649 35.0231 38.6934 33.9118 37.6469 33.0686C37.1072 32.8371 36.5087 32.7595 35.9237 32.8451C35.3388 32.9307 34.7923 33.1759 34.3502 33.5512C33.5827 34.1827 32.9735 34.9703 32.5674 35.8561C32.1614 36.7419 31.9689 37.7032 32.0041 38.6693C32.0065 39.2119 32.0785 39.7521 32.2188 40.2779C32.5748 41.5412 33.1224 42.7482 33.8441 43.8606C34.3649 44.7127 34.933 45.5377 35.5462 46.3319C37.5389 48.9407 40.0438 51.1557 42.9218 52.8539C44.366 53.7169 45.9095 54.4186 47.5219 54.9451C49.1968 55.6691 51.0461 55.9471 52.8734 55.7493C53.9145 55.5991 54.9009 55.207 55.7459 54.6078C56.5908 54.0086 57.2684 53.2205 57.7189 52.3129C57.9836 51.7646 58.064 51.1516 57.9489 50.5581C57.6729 49.3443 55.9708 48.6278 54.9281 48.0429Z" fill="white"/>
    </g>

  </defs>
</svg>
