<svg class="dn" height="0" version="1.1" width="0"
  xmlns="http://www.w3.org/2000/svg">
  <defs>
    <g id="hpa-profile">
      <path style="fill:none;stroke-width:3;stroke-linecap:butt;stroke-linejoin:miter;stroke:currentColor;stroke-opacity:1;stroke-miterlimit:4;" d="M 23.353271 7.428223 C 23.353271 10.699219 20.704346 13.35791 17.423096 13.35791 C 14.150391 13.35791 11.501465 10.699219 11.501465 7.428223 C 11.501465 4.157227 14.150391 1.498535 17.423096 1.498535 C 20.704346 1.498535 23.353271 4.157227 23.353271 7.428223 Z M 23.353271 7.428223 " transform="matrix(0.457143,0,0,0.484848,0,0)"/>
      <path style="fill:none;stroke-width:3;stroke-linecap:butt;stroke-linejoin:miter;stroke:currentColor;stroke-opacity:1;stroke-miterlimit:4;" d="M 29.821777 31.001953 L 4.571533 31.001953 C 2.70874 31.001953 1.298828 29.318115 1.777344 27.513428 C 2.939453 23.162842 5.032959 17.998535 7.861328 17.998535 C 13.193359 17.998535 11.663818 22.333008 16.99585 22.333008 C 22.336426 22.333008 20.046387 17.998535 26.138916 17.998535 C 30.001221 17.998535 31.889648 23.428711 32.633057 27.84375 C 32.923584 29.543701 31.547852 31.001953 29.821777 31.001953 Z M 29.821777 31.001953 " transform="matrix(0.457143,0,0,0.484848,0,0)"/>
    </g>

    <g id="hpa-cart">
      <path style="fill:none;stroke-width:3;stroke-linecap:round;stroke-linejoin:miter;stroke:currentColor;stroke-opacity:1;stroke-miterlimit:4;" d="M 1.999512 2 L 2.435303 2 C 3.913574 2 5.169678 3.070312 5.400391 4.53125 L 8.100586 21.46875 C 8.331299 22.929688 9.587402 24 11.057129 24 L 26.489258 24 C 27.941895 24 29.189453 22.960938 29.437256 21.523438 L 31.368408 10.671875 C 31.70166 8.835938 30.283203 7.148438 28.42041 7.148438 L 27.001953 7.148438 " transform="matrix(0.457143,0,0,0.5,0,0)"/>
      <path style=" stroke:none;fill-rule:nonzero;fill:currentColor;fill-opacity:1;" d="M 6.398438 15 C 6.398438 15.550781 5.992188 16 5.484375 16 C 4.980469 16 4.570312 15.550781 4.570312 15 C 4.570312 14.449219 4.980469 14 5.484375 14 C 5.992188 14 6.398438 14.449219 6.398438 15 Z M 6.398438 15 "/>
      <path style=" stroke:none;fill-rule:nonzero;fill:currentColor;fill-opacity:1;" d="M 11.886719 15 C 11.886719 15.550781 11.476562 16 10.972656 16 C 10.464844 16 10.058594 15.550781 10.058594 15 C 10.058594 14.449219 10.464844 14 10.972656 14 C 11.476562 14 11.886719 14.449219 11.886719 15 Z M 11.886719 15 "/>
    </g>

    <g id="hpa-search">
      <path style="fill:none;stroke-width:3;stroke-linecap:butt;stroke-linejoin:miter;stroke:currentColor;stroke-opacity:1;stroke-miterlimit:4;" d="M 26.055176 14.4375 C 26.055176 21.213135 20.560547 26.71582 13.776855 26.71582 C 6.993164 26.71582 1.498535 21.213135 1.498535 14.4375 C 1.498535 7.653809 6.993164 2.15918 13.776855 2.15918 C 20.560547 2.15918 26.055176 7.653809 26.055176 14.4375 Z M 26.055176 14.4375 " transform="matrix(0.484848,0,0,0.484848,0,0)"/>
      <path style="fill:none;stroke-width:3;stroke-linecap:butt;stroke-linejoin:miter;stroke:currentColor;stroke-opacity:1;stroke-miterlimit:4;" d="M 22.961426 23.62207 L 31.001953 31.654541 " transform="matrix(0.484848,0,0,0.484848,0,0)"/>
    </g>

    <g id="bnd-whatsapp">
      <path style=" stroke:none;fill-rule:nonzero;fill:currentColor;fill-opacity:1;" d="M 0 15.699219 L 1.128906 11.515625 C 0.21875 9.882812 -0.0703125 7.980469 0.3125 6.15625 C 0.699219 4.332031 1.730469 2.707031 3.21875 1.578125 C 4.710938 0.449219 6.558594 -0.105469 8.425781 0.015625 C 10.292969 0.136719 12.054688 0.925781 13.386719 2.234375 C 14.71875 3.542969 15.53125 5.289062 15.675781 7.148438 C 15.820312 9.007812 15.289062 10.855469 14.175781 12.355469 C 13.0625 13.855469 11.445312 14.90625 9.617188 15.3125 C 7.792969 15.71875 5.878906 15.457031 4.234375 14.570312 Z M 4.4375 13.003906 L 4.699219 13.160156 C 5.894531 13.863281 7.285156 14.15625 8.664062 13.988281 C 10.039062 13.820312 11.320312 13.207031 12.3125 12.238281 C 13.300781 11.265625 13.9375 10 14.128906 8.628906 C 14.320312 7.261719 14.050781 5.867188 13.363281 4.667969 C 12.675781 3.46875 11.609375 2.527344 10.328125 1.992188 C 9.050781 1.460938 7.628906 1.363281 6.289062 1.71875 C 4.949219 2.074219 3.761719 2.863281 2.917969 3.957031 C 2.074219 5.054688 1.617188 6.398438 1.621094 7.78125 C 1.617188 8.925781 1.9375 10.050781 2.539062 11.027344 L 2.703125 11.296875 L 2.074219 13.632812 Z M 4.4375 13.003906 "/>
      <path style=" stroke:none;fill-rule:evenodd;fill:currentColor;fill-opacity:1;" d="M 10.363281 8.667969 C 10.230469 8.5625 10.070312 8.492188 9.902344 8.453125 C 9.734375 8.417969 9.558594 8.417969 9.390625 8.457031 C 9.140625 8.554688 8.976562 8.933594 8.8125 9.121094 C 8.78125 9.167969 8.730469 9.199219 8.671875 9.210938 C 8.613281 9.222656 8.554688 9.214844 8.503906 9.191406 C 7.578125 8.84375 6.804688 8.210938 6.304688 7.394531 C 6.261719 7.34375 6.242188 7.277344 6.25 7.214844 C 6.257812 7.148438 6.289062 7.089844 6.339844 7.046875 C 6.523438 6.875 6.65625 6.660156 6.730469 6.425781 C 6.746094 6.167969 6.683594 5.914062 6.550781 5.6875 C 6.449219 5.371094 6.253906 5.089844 5.988281 4.875 C 5.851562 4.816406 5.699219 4.796875 5.550781 4.820312 C 5.402344 4.839844 5.265625 4.902344 5.152344 5 C 4.957031 5.15625 4.804688 5.359375 4.703125 5.582031 C 4.597656 5.804688 4.550781 6.050781 4.558594 6.292969 C 4.558594 6.429688 4.578125 6.566406 4.613281 6.703125 C 4.703125 7.019531 4.839844 7.328125 5.023438 7.609375 C 5.15625 7.824219 5.300781 8.03125 5.457031 8.234375 C 5.960938 8.894531 6.59375 9.457031 7.324219 9.886719 C 7.6875 10.105469 8.078125 10.28125 8.488281 10.414062 C 8.910156 10.597656 9.378906 10.667969 9.84375 10.617188 C 10.105469 10.582031 10.355469 10.480469 10.570312 10.328125 C 10.785156 10.179688 10.957031 9.976562 11.070312 9.75 C 11.136719 9.609375 11.15625 9.453125 11.128906 9.304688 C 11.058594 8.996094 10.628906 8.816406 10.363281 8.667969 Z M 10.363281 8.667969 "/>
    </g>
  </defs>
</svg>
