<svg class="dn" height="0" version="1.1" width="0"
  xmlns="http://www.w3.org/2000/svg">
  <defs>
    <g id="hpa-profile">
      <path style="fill:none;stroke-width:3;stroke-linecap:butt;stroke-linejoin:miter;stroke:currentColor;stroke-opacity:1;stroke-miterlimit:4;" d="M 23.353271 7.428223 C 23.353271 10.699219 20.704346 13.35791 17.423096 13.35791 C 14.150391 13.35791 11.501465 10.699219 11.501465 7.428223 C 11.501465 4.157227 14.150391 1.498535 17.423096 1.498535 C 20.704346 1.498535 23.353271 4.157227 23.353271 7.428223 Z M 23.353271 7.428223 " transform="matrix(0.457143,0,0,0.484848,0,0)"/>
      <path style="fill:none;stroke-width:3;stroke-linecap:butt;stroke-linejoin:miter;stroke:currentColor;stroke-opacity:1;stroke-miterlimit:4;" d="M 29.821777 31.001953 L 4.571533 31.001953 C 2.70874 31.001953 1.298828 29.318115 1.777344 27.513428 C 2.939453 23.162842 5.032959 17.998535 7.861328 17.998535 C 13.193359 17.998535 11.663818 22.333008 16.99585 22.333008 C 22.336426 22.333008 20.046387 17.998535 26.138916 17.998535 C 30.001221 17.998535 31.889648 23.428711 32.633057 27.84375 C 32.923584 29.543701 31.547852 31.001953 29.821777 31.001953 Z M 29.821777 31.001953 " transform="matrix(0.457143,0,0,0.484848,0,0)"/>
    </g>

    <g id="hpa-cart">
      <path style="fill:none;stroke-width:3;stroke-linecap:round;stroke-linejoin:miter;stroke:currentColor;stroke-opacity:1;stroke-miterlimit:4;" d="M 1.999512 2 L 2.435303 2 C 3.913574 2 5.169678 3.070312 5.400391 4.53125 L 8.100586 21.46875 C 8.331299 22.929688 9.587402 24 11.057129 24 L 26.489258 24 C 27.941895 24 29.189453 22.960938 29.437256 21.523438 L 31.368408 10.671875 C 31.70166 8.835938 30.283203 7.148438 28.42041 7.148438 L 27.001953 7.148438 " transform="matrix(0.457143,0,0,0.5,0,0)"/>
      <path style=" stroke:none;fill-rule:nonzero;fill:currentColor;fill-opacity:1;" d="M 6.398438 15 C 6.398438 15.550781 5.992188 16 5.484375 16 C 4.980469 16 4.570312 15.550781 4.570312 15 C 4.570312 14.449219 4.980469 14 5.484375 14 C 5.992188 14 6.398438 14.449219 6.398438 15 Z M 6.398438 15 "/>
      <path style=" stroke:none;fill-rule:nonzero;fill:currentColor;fill-opacity:1;" d="M 11.886719 15 C 11.886719 15.550781 11.476562 16 10.972656 16 C 10.464844 16 10.058594 15.550781 10.058594 15 C 10.058594 14.449219 10.464844 14 10.972656 14 C 11.476562 14 11.886719 14.449219 11.886719 15 Z M 11.886719 15 "/>
    </g>

    <g id="hpa-search">
      <path style="fill:none;stroke-width:3;stroke-linecap:butt;stroke-linejoin:miter;stroke:currentColor;stroke-opacity:1;stroke-miterlimit:4;" d="M 26.055176 14.4375 C 26.055176 21.213135 20.560547 26.71582 13.776855 26.71582 C 6.993164 26.71582 1.498535 21.213135 1.498535 14.4375 C 1.498535 7.653809 6.993164 2.15918 13.776855 2.15918 C 20.560547 2.15918 26.055176 7.653809 26.055176 14.4375 Z M 26.055176 14.4375 " transform="matrix(0.484848,0,0,0.484848,0,0)"/>
      <path style="fill:none;stroke-width:3;stroke-linecap:butt;stroke-linejoin:miter;stroke:currentColor;stroke-opacity:1;stroke-miterlimit:4;" d="M 22.961426 23.62207 L 31.001953 31.654541 " transform="matrix(0.484848,0,0,0.484848,0,0)"/>
    </g>

    <g id="bnd-whatsapp">
      <path style=" stroke:none;fill-rule:nonzero;fill:currentColor;fill-opacity:1;" d="M 0 15.699219 L 1.128906 11.515625 C 0.21875 9.882812 -0.0703125 7.980469 0.3125 6.15625 C 0.699219 4.332031 1.730469 2.707031 3.21875 1.578125 C 4.710938 0.449219 6.558594 -0.105469 8.425781 0.015625 C 10.292969 0.136719 12.054688 0.925781 13.386719 2.234375 C 14.71875 3.542969 15.53125 5.289062 15.675781 7.148438 C 15.820312 9.007812 15.289062 10.855469 14.175781 12.355469 C 13.0625 13.855469 11.445312 14.90625 9.617188 15.3125 C 7.792969 15.71875 5.878906 15.457031 4.234375 14.570312 Z M 4.4375 13.003906 L 4.699219 13.160156 C 5.894531 13.863281 7.285156 14.15625 8.664062 13.988281 C 10.039062 13.820312 11.320312 13.207031 12.3125 12.238281 C 13.300781 11.265625 13.9375 10 14.128906 8.628906 C 14.320312 7.261719 14.050781 5.867188 13.363281 4.667969 C 12.675781 3.46875 11.609375 2.527344 10.328125 1.992188 C 9.050781 1.460938 7.628906 1.363281 6.289062 1.71875 C 4.949219 2.074219 3.761719 2.863281 2.917969 3.957031 C 2.074219 5.054688 1.617188 6.398438 1.621094 7.78125 C 1.617188 8.925781 1.9375 10.050781 2.539062 11.027344 L 2.703125 11.296875 L 2.074219 13.632812 Z M 4.4375 13.003906 "/>
      <path style=" stroke:none;fill-rule:evenodd;fill:currentColor;fill-opacity:1;" d="M 10.363281 8.667969 C 10.230469 8.5625 10.070312 8.492188 9.902344 8.453125 C 9.734375 8.417969 9.558594 8.417969 9.390625 8.457031 C 9.140625 8.554688 8.976562 8.933594 8.8125 9.121094 C 8.78125 9.167969 8.730469 9.199219 8.671875 9.210938 C 8.613281 9.222656 8.554688 9.214844 8.503906 9.191406 C 7.578125 8.84375 6.804688 8.210938 6.304688 7.394531 C 6.261719 7.34375 6.242188 7.277344 6.25 7.214844 C 6.257812 7.148438 6.289062 7.089844 6.339844 7.046875 C 6.523438 6.875 6.65625 6.660156 6.730469 6.425781 C 6.746094 6.167969 6.683594 5.914062 6.550781 5.6875 C 6.449219 5.371094 6.253906 5.089844 5.988281 4.875 C 5.851562 4.816406 5.699219 4.796875 5.550781 4.820312 C 5.402344 4.839844 5.265625 4.902344 5.152344 5 C 4.957031 5.15625 4.804688 5.359375 4.703125 5.582031 C 4.597656 5.804688 4.550781 6.050781 4.558594 6.292969 C 4.558594 6.429688 4.578125 6.566406 4.613281 6.703125 C 4.703125 7.019531 4.839844 7.328125 5.023438 7.609375 C 5.15625 7.824219 5.300781 8.03125 5.457031 8.234375 C 5.960938 8.894531 6.59375 9.457031 7.324219 9.886719 C 7.6875 10.105469 8.078125 10.28125 8.488281 10.414062 C 8.910156 10.597656 9.378906 10.667969 9.84375 10.617188 C 10.105469 10.582031 10.355469 10.480469 10.570312 10.328125 C 10.785156 10.179688 10.957031 9.976562 11.070312 9.75 C 11.136719 9.609375 11.15625 9.453125 11.128906 9.304688 C 11.058594 8.996094 10.628906 8.816406 10.363281 8.667969 Z M 10.363281 8.667969 "/>
    </g>
    <g id="sti-close--line">
      <path style="fill:none;stroke-width:3;stroke-linecap:round;stroke-linejoin:miter;stroke:rgb(0%,0%,0%);stroke-opacity:1;stroke-miterlimit:4;" d="M 2.003906 1.998047 L 18.878906 18.878906 " transform="matrix(0.666667,0,0,0.666667,0,0)"/>
      <path style="fill:none;stroke-width:3;stroke-linecap:round;stroke-linejoin:miter;stroke:rgb(0%,0%,0%);stroke-opacity:1;stroke-miterlimit:4;" d="M 18.878906 1.998047 L 1.998047 18.878906 " transform="matrix(0.666667,0,0,0.666667,0,0)"/>
    </g>
    <g id="hpa-delete">
      <path d="M1.03174 0.984222L10.3669 10.3194" stroke="white" stroke-width="1.65906" stroke-linecap="round"/>
      <path d="M10.3647 0.984222L1.02958 10.3194" stroke="white" stroke-width="1.65906" stroke-linecap="round"/>
    </g>

    <g id="bnd-copy-to-clipboard">
      <path d="M5.5 1H12.6C14.8402 1 15.9603 1 16.816 1.43597C17.5686 1.81947 18.1805 2.43139 18.564 3.18404C19 4.03969 19 5.15979 19 7.4V14.5M4.2 19H12.3C13.4201 19 13.9802 19 14.408 18.782C14.7843 18.5903 15.0903 18.2843 15.282 17.908C15.5 17.4802 15.5 16.9201 15.5 15.8V7.7C15.5 6.57989 15.5 6.01984 15.282 5.59202C15.0903 5.21569 14.7843 4.90973 14.408 4.71799C13.9802 4.5 13.4201 4.5 12.3 4.5H4.2C3.0799 4.5 2.51984 4.5 2.09202 4.71799C1.71569 4.90973 1.40973 5.21569 1.21799 5.59202C1 6.01984 1 6.57989 1 7.7V15.8C1 16.9201 1 17.4802 1.21799 17.908C1.40973 18.2843 1.71569 18.5903 2.09202 18.782C2.51984 19 3.0799 19 4.2 19Z" stroke="black" stroke-width="2" stroke-linecap="round" stroke-linejoin="round"/>
    </g>

    <g id="bnd-whastapp">
      <g clip-path="url(#clip0_837_8863)">
        <path d="M1.23828 36.9171L3.88353 27.0981C1.7502 23.2731 1.07242 18.8097 1.97457 14.5268C2.87671 10.244 5.29826 6.42899 8.79486 3.78195C12.2915 1.13491 16.6286 -0.166632 21.0103 0.116151C25.3921 0.398935 29.5245 2.24708 32.6494 5.32144C35.7743 8.39581 37.6819 12.4902 38.0224 16.8532C38.3628 21.2163 37.1131 25.5553 34.5026 29.0742C31.8921 32.593 28.096 35.0556 23.8108 36.0101C19.5256 36.9646 15.0387 36.3469 11.1736 34.2704L1.23828 36.9171Z" fill="#00D95F"/>
        <path d="M14.8718 27.0079L14.4502 26.7578L10.6411 27.7726L11.6559 23.9992L11.3915 23.5633C10.4224 21.9853 9.91031 20.1694 9.91212 18.3177C9.9088 16.0844 10.6443 13.9128 12.0041 12.1412C13.3639 10.3696 15.2715 9.09759 17.4296 8.52336C19.5878 7.94912 21.8753 8.10493 23.9357 8.96651C25.9961 9.82808 27.7136 11.347 28.8206 13.2866C29.9275 15.2262 30.3618 17.4775 30.0557 19.6897C29.7496 21.9019 28.7203 23.9507 27.1282 25.5168C25.5361 27.083 23.4707 28.0784 21.2538 28.3482C19.0369 28.6179 16.793 28.1466 14.8718 27.0079Z" fill="#00D95F"/>
        <path d="M7.02148 31.3133L8.86033 24.4876C7.37735 21.8286 6.90619 18.7259 7.53331 15.7486C8.16044 12.7714 9.84378 10.1194 12.2745 8.27931C14.7051 6.43922 17.7201 5.53445 20.766 5.73102C23.812 5.9276 26.6847 7.21234 28.857 9.34949C31.0292 11.4866 32.3553 14.3328 32.592 17.3658C32.8286 20.3988 31.9599 23.4151 30.1452 25.8612C28.3306 28.3074 25.6917 30.0193 22.7128 30.6828C19.7339 31.3463 16.6149 30.9169 13.928 29.4734L7.02148 31.3133ZM14.261 26.9192L14.6882 27.1717C16.6343 28.3214 18.9074 28.7971 21.1532 28.5248C23.3989 28.2525 25.4912 27.2474 27.104 25.6663C28.7168 24.0851 29.7595 22.0166 30.0696 19.7831C30.3797 17.5496 29.9398 15.2767 28.8184 13.3184C27.697 11.3601 25.9572 9.82659 23.87 8.95672C21.7828 8.08686 19.4655 7.92955 17.2793 8.50931C15.093 9.08907 13.1606 10.3733 11.7831 12.162C10.4057 13.9506 9.66057 16.1431 9.66393 18.3979C9.6621 20.2674 10.1809 22.1008 11.1625 23.6939L11.4304 24.134L10.4024 27.9437L14.261 26.9192Z" fill="white"/>
        <path fill-rule="evenodd" clip-rule="evenodd" d="M23.9254 19.8436C23.7063 19.6751 23.4498 19.5565 23.1755 19.4968C22.9011 19.4371 22.616 19.438 22.342 19.4993C21.9303 19.6624 21.6643 20.2784 21.3983 20.5865C21.3422 20.6603 21.2598 20.7121 21.1665 20.7321C21.0732 20.7522 20.9755 20.739 20.8916 20.6952C19.3845 20.1323 18.1211 19.0999 17.3069 17.7658C17.2374 17.6825 17.2045 17.5768 17.2152 17.4709C17.2258 17.365 17.2791 17.2672 17.3639 17.198C17.6605 16.9179 17.8784 16.571 17.9972 16.1893C18.0236 15.7683 17.9225 15.349 17.7059 14.9813C17.5384 14.4658 17.2197 14.0068 16.7875 13.6585C16.5646 13.5629 16.3174 13.5309 16.0758 13.5662C15.8341 13.6016 15.6084 13.7029 15.4258 13.8579C15.1088 14.1187 14.8572 14.444 14.6895 14.8099C14.5217 15.1758 14.4422 15.5728 14.4568 15.9719C14.4577 16.196 14.4875 16.4191 14.5454 16.6363C14.6925 17.1581 14.9187 17.6566 15.2168 18.1161C15.4319 18.4681 15.6666 18.8088 15.9198 19.1369C16.7429 20.2144 17.7775 21.1293 18.9662 21.8307C19.5628 22.1872 20.2003 22.477 20.8663 22.6945C21.5581 22.9935 22.322 23.1083 23.0767 23.0267C23.5067 22.9646 23.9142 22.8027 24.2632 22.5552C24.6122 22.3077 24.892 21.9821 25.0781 21.6073C25.1874 21.3808 25.2206 21.1276 25.1731 20.8825C25.0591 20.3811 24.3561 20.0852 23.9254 19.8436Z" fill="white"/>
      </g>
      <defs>
        <clipPath id="clip0_837_8863">
        <rect width="38" height="36.7609" fill="white"/>
        </clipPath>
      </defs>
    </g>

  </defs>
</svg>
