<svg width="39" height="33" viewBox="0 0 39 33" fill="none" xmlns="http://www.w3.org/2000/svg">
<path d="M20.2773 32.3999L35.2499 17.4273C38.9288 13.7484 39.4715 7.69603 35.99 3.82978C35.118 2.85855 34.0572 2.07518 32.8724 1.52747C31.6876 0.979756 30.4036 0.679186 29.0988 0.644098C27.7939 0.609009 26.4957 0.840139 25.2831 1.32338C24.0706 1.80663 22.9692 2.53185 22.0462 3.45481L19.232 6.26898L16.8023 3.83923C13.1234 0.160315 7.07103 -0.38245 3.20478 3.09904C2.23355 3.9711 1.45018 5.0319 0.902468 6.21671C0.354756 7.40153 0.0541858 8.68551 0.0190976 9.99033C-0.0159906 11.2951 0.215139 12.5934 0.698383 13.806C1.18163 15.0185 1.90685 16.1199 2.82981 17.0429L18.1868 32.3999C18.464 32.6771 18.84 32.8328 19.232 32.8328C19.6241 32.8328 20.0001 32.6771 20.2773 32.3999Z" fill="#EB0606"/>
</svg>
