<svg width="120" height="51" viewBox="0 0 120 51" fill="none" xmlns="http://www.w3.org/2000/svg">
<path d="M0.582711 21.9713C0.248889 21.9349 -0.00300761 21.6466 2.71311e-05 21.2976L0.0303672 18.4874C0.0364366 18.0868 0.370269 17.747 0.761751 17.747H1.50829C1.91798 17.747 2.24271 17.4162 2.24574 16.9943L2.37322 5.41679C2.37625 5.00407 2.06972 4.649 1.66914 4.60651C1.66003 4.60651 1.59933 4.60348 1.59023 4.60348H0.843695C0.819417 4.60348 0.795142 4.60348 0.770864 4.60045C0.437042 4.56403 0.185148 4.27269 0.191217 3.92673L0.221558 1.11353C0.227627 0.712939 0.561459 0.373047 0.952941 0.373047H11.702C12.1936 0.373047 12.6731 0.397325 13.1253 0.445881C13.9204 0.530854 14.6609 0.69473 15.3255 0.92537C16.3725 1.29257 17.2617 1.80545 17.9657 2.44274C18.6698 3.08307 19.21 3.83266 19.5772 4.67631C19.9444 5.52301 20.1234 6.4486 20.1143 7.42579C20.1022 8.40905 19.9171 9.34071 19.559 10.1904C19.1978 11.0462 18.6637 11.8049 17.9657 12.4513C17.2677 13.1008 16.3907 13.6167 15.3589 13.9869C14.327 14.3571 13.1162 14.5423 11.7597 14.5423H9.68391C9.27421 14.5423 8.94948 14.8731 8.94645 15.2949L8.92826 16.9306C8.92522 17.1309 8.99807 17.3251 9.12856 17.4769C9.25906 17.6286 9.43808 17.7227 9.62926 17.7439C9.63837 17.7439 9.69907 17.747 9.70817 17.747H10.4851C10.5094 17.747 10.5336 17.75 10.5579 17.75C10.8948 17.7864 11.1436 18.0747 11.1406 18.4237L11.1102 21.2369C11.1072 21.6375 10.7704 21.9774 10.3789 21.9774H0.65858C0.631267 21.9774 0.606989 21.9744 0.582711 21.9713ZM11.5169 4.61258C11.4441 4.60348 11.3712 4.60045 11.2953 4.60045H9.79315C9.38346 4.60045 9.05873 4.93123 9.05569 5.35306L9.0102 9.52584C9.00413 9.93856 9.31366 10.2936 9.71121 10.3361C9.72031 10.3361 9.78101 10.3391 9.79011 10.3391H11.2923C11.8416 10.3391 12.3029 10.1328 12.7035 9.70488C13.098 9.28306 13.3043 8.53651 13.3165 7.48345C13.3286 6.40612 13.1375 5.67171 12.7338 5.23774C12.3848 4.87357 11.9782 4.66418 11.5169 4.61258Z" fill="#002F87"/>
<path d="M21.5436 21.9746C21.2098 21.9382 20.9579 21.6499 20.964 21.3009L20.9943 18.5211C21.0004 18.1205 21.3342 17.7806 21.7257 17.7806H22.4722C22.8819 17.7806 23.2066 17.4498 23.2097 17.028L23.3371 5.4201C23.3402 5.00738 23.0336 4.65232 22.6361 4.60983C22.627 4.60983 22.5663 4.60679 22.5572 4.60679H21.8106C21.7864 4.60679 21.7621 4.60679 21.7378 4.60376C21.404 4.56734 21.1521 4.27904 21.1552 3.93005L21.1855 1.11987C21.1885 0.719287 21.5254 0.379395 21.9169 0.379395H38.6565C38.6808 0.379395 38.7051 0.379395 38.7293 0.38243C39.0632 0.418847 39.3151 0.707147 39.309 1.05614L39.2483 6.50047C39.2453 6.90106 38.9084 7.24095 38.5169 7.24095H35.2697C35.2454 7.24095 35.2212 7.24095 35.1969 7.23792C34.8631 7.2015 34.6112 6.9132 34.6142 6.5642L34.6264 5.42617C34.6294 5.01345 34.3229 4.65838 33.9254 4.6159C33.9163 4.6159 33.8556 4.61286 33.8464 4.61286H30.751C30.3413 4.61286 30.0166 4.94365 30.0136 5.36548L29.9832 8.23938C29.9802 8.43967 30.053 8.6339 30.1835 8.78564C30.314 8.93737 30.493 9.03145 30.6842 9.05269C30.6933 9.05269 30.754 9.05573 30.7631 9.05573H34.2197C34.244 9.05573 34.2683 9.05573 34.2925 9.05876C34.6264 9.09518 34.8783 9.38652 34.8752 9.73248L34.8509 11.9569C34.8479 12.3575 34.5111 12.6974 34.1196 12.6974H30.663C30.2533 12.6974 29.9286 13.0282 29.9255 13.45L29.8861 16.9734C29.8831 17.1737 29.9559 17.3679 30.0864 17.5166C30.2169 17.6683 30.3959 17.7624 30.5871 17.7837C30.5962 17.7837 30.6569 17.7867 30.6691 17.7867H33.7645C34.1742 17.7867 34.4989 17.4559 34.502 17.0341L34.5141 15.896C34.5171 15.4955 34.854 15.1556 35.2455 15.1556H38.4926C38.5169 15.1556 38.5412 15.1586 38.5655 15.1586C38.8993 15.195 39.1512 15.4833 39.1481 15.8323L39.0875 21.2463C39.0844 21.6469 38.7476 21.9868 38.3561 21.9868H21.6164C21.5921 21.9777 21.5679 21.9777 21.5436 21.9746Z" fill="#002F87"/>
<path d="M49.1082 22.2811C48.0096 22.1627 46.9869 21.8896 46.0643 21.4738C44.7806 20.8912 43.679 20.09 42.7868 19.0916C41.8976 18.0931 41.2056 16.9035 40.7322 15.5561C40.2588 14.2087 40.0282 12.7459 40.0464 11.2073C40.0646 9.6687 40.3286 8.20291 40.8324 6.84638C41.3362 5.48985 42.0615 4.29113 42.981 3.28359C43.9035 2.27606 45.0325 1.46882 46.3374 0.883111C47.6424 0.297405 49.1233 0 50.7378 0C51.1991 0 51.6513 0.0242778 52.0883 0.069799C53.1929 0.188154 54.2187 0.461281 55.1382 0.877041C56.4188 1.45971 57.5235 2.25785 58.4157 3.25932C59.3049 4.25775 59.9968 5.44737 60.4702 6.79479C60.9436 8.14525 61.1743 9.608 61.1561 11.1436C61.1379 12.6822 60.8738 14.148 60.3701 15.5045C59.8633 16.861 59.141 18.0598 58.2215 19.0673C57.3019 20.0748 56.17 20.8821 54.8651 21.4708C53.5601 22.0565 52.0701 22.3509 50.4343 22.3509C49.9822 22.3509 49.536 22.3266 49.1082 22.2811ZM50.8956 4.55515C50.8076 4.54605 50.7166 4.53998 50.6286 4.53998C50.1855 4.53998 49.7637 4.6553 49.3691 4.87987C48.9777 5.10748 48.6347 5.48075 48.3495 5.99362C48.0642 6.50953 47.8275 7.19538 47.6484 8.03904C47.4694 8.8827 47.3723 9.92665 47.3571 11.1405C47.345 12.3757 47.4178 13.4257 47.5817 14.2633C47.7425 15.1009 47.9671 15.7958 48.2432 16.3269C48.5255 16.8641 48.8684 17.2556 49.269 17.4892C49.5815 17.6713 49.9184 17.7836 50.2735 17.8231C50.8046 17.8807 51.3326 17.7684 51.8 17.4983C52.1884 17.2738 52.5374 16.8944 52.8348 16.3724C53.1322 15.8444 53.372 15.1585 53.551 14.327C53.7301 13.4925 53.8272 12.4425 53.8423 11.2073C53.8545 9.99341 53.7817 8.94946 53.6178 8.10277C53.4569 7.25607 53.2293 6.56112 52.941 6.03914C52.6497 5.5111 52.2977 5.12568 51.9001 4.89201C51.5845 4.70689 51.2477 4.5946 50.8956 4.55515Z" fill="#002F87"/>
<path d="M62.1122 21.9744C61.7784 21.9379 61.5265 21.6496 61.5326 21.3006L61.5629 18.4874C61.566 18.0868 61.9028 17.747 62.2943 17.747H63.0408C63.4505 17.747 63.7753 17.4162 63.7783 16.9943L63.9058 5.41679C63.9088 5.00407 63.6023 4.649 63.2047 4.60652C63.1956 4.60652 63.1349 4.60348 63.1258 4.60348H62.3793C62.355 4.60348 62.3307 4.60348 62.3065 4.60045C61.9726 4.56403 61.7207 4.27269 61.7268 3.92673L61.7571 1.11353C61.7632 0.712939 62.097 0.373047 62.4885 0.373047H73.2376C73.7262 0.373047 74.2057 0.397325 74.6609 0.445881C75.456 0.530854 76.1965 0.69473 76.8611 0.92537C77.9081 1.29257 78.7942 1.80241 79.5013 2.44274C80.2053 3.08307 80.7486 3.83266 81.1128 4.67631C81.48 5.52301 81.659 6.44557 81.6499 7.42579C81.6378 8.41208 81.4526 9.34072 81.0945 10.1904C80.7364 11.0432 80.1993 11.8049 79.5013 12.4513C78.8033 13.1008 77.9263 13.6167 76.8945 13.9869C75.8626 14.3571 74.6518 14.5423 73.2952 14.5423H71.2195C70.8098 14.5423 70.4851 14.8731 70.482 15.2949L70.4638 16.9306C70.4608 17.1309 70.5336 17.3251 70.6641 17.4769C70.7946 17.6286 70.9737 17.7227 71.1649 17.7439C71.174 17.7439 71.2347 17.747 71.2438 17.747H72.0207C72.0449 17.747 72.0692 17.75 72.0935 17.75C72.4273 17.7864 72.6792 18.0747 72.6731 18.4237L72.6428 21.2369C72.6397 21.6375 72.3029 21.9774 71.9114 21.9774H62.1911C62.1608 21.9804 62.1365 21.9774 62.1122 21.9744ZM73.0464 4.61562C72.9736 4.60652 72.9007 4.60348 72.8248 4.60348H71.3227C70.913 4.60348 70.5882 4.93427 70.5852 5.3561L70.5397 9.52887C70.5367 9.9416 70.8432 10.2967 71.2407 10.3391C71.2498 10.3391 71.3105 10.3422 71.3196 10.3422H72.8218C73.3711 10.3422 73.8354 10.1358 74.233 9.70792C74.6275 9.28609 74.8339 8.53954 74.846 7.48649C74.8581 6.40915 74.667 5.67475 74.2634 5.24078C73.9174 4.87964 73.5077 4.66721 73.0464 4.61562Z" fill="#002F87"/>
<path d="M83.0761 21.9777C82.7423 21.9413 82.4904 21.653 82.4964 21.304L82.5268 18.5241C82.5329 18.1235 82.8667 17.7837 83.2582 17.7837H84.0047C84.4144 17.7837 84.7391 17.4529 84.7422 17.031L84.8696 5.42314C84.8727 5.01042 84.5661 4.65535 84.1686 4.61286C84.1595 4.61286 84.0988 4.60983 84.0897 4.60983H83.3432C83.3189 4.60983 83.2946 4.60983 83.2703 4.60679C82.9365 4.57038 82.6846 4.28208 82.6907 3.93308L82.7211 1.11987C82.7241 0.719287 83.0579 0.379395 83.4524 0.379395H93.4762C93.5004 0.379395 93.5247 0.379395 93.549 0.38243C93.8828 0.418847 94.1317 0.710182 94.1286 1.05614L94.0983 3.86935C94.0953 4.26994 93.7584 4.60983 93.3669 4.60983H92.59C92.1803 4.60983 91.8556 4.94062 91.8526 5.36245L91.7251 16.9703C91.7221 17.1706 91.7949 17.3649 91.9254 17.5166C92.0559 17.6683 92.235 17.7624 92.4262 17.7837C92.4353 17.7837 92.496 17.7867 92.5051 17.7867H95.3C95.7097 17.7867 96.0345 17.4559 96.0375 17.0341L96.0496 15.896C96.0527 15.4955 96.3895 15.1556 96.781 15.1556H100.028C100.052 15.1556 100.077 15.1556 100.101 15.1586C100.435 15.195 100.684 15.4833 100.681 15.8323L100.62 21.2463C100.617 21.6469 100.283 21.9868 99.8886 21.9868H83.1489C83.1246 21.9807 83.1004 21.9807 83.0761 21.9777Z" fill="#002F87"/>
<path d="M102.231 21.9777C101.898 21.9413 101.646 21.653 101.652 21.304L101.682 18.5241C101.688 18.1235 102.022 17.7837 102.413 17.7837H103.16C103.57 17.7837 103.894 17.4529 103.897 17.031L104.025 5.42314C104.028 5.01042 103.721 4.65535 103.324 4.61286C103.315 4.61286 103.254 4.60983 103.245 4.60983H102.498C102.474 4.60983 102.45 4.60983 102.426 4.60679C102.092 4.57038 101.84 4.28208 101.846 3.93308L101.876 1.11987C101.879 0.719287 102.216 0.379395 102.608 0.379395H119.347C119.372 0.379395 119.396 0.379395 119.42 0.38243C119.754 0.418847 120.006 0.707147 120 1.05614L119.939 6.50047C119.936 6.90106 119.602 7.24095 119.208 7.24095H115.961C115.936 7.24095 115.888 7.23792 115.888 7.23792C115.554 7.2015 115.302 6.9132 115.308 6.5642L115.32 5.42617C115.323 5.01345 115.017 4.65838 114.619 4.6159C114.61 4.6159 114.549 4.61286 114.54 4.61286H111.445C111.035 4.61286 110.71 4.94365 110.707 5.36548L110.677 8.23938C110.674 8.43967 110.747 8.6339 110.877 8.78564C111.008 8.93737 111.187 9.03145 111.378 9.05269C111.387 9.05269 111.448 9.05573 111.457 9.05573H114.914C114.938 9.05573 114.962 9.05573 114.986 9.05876C115.32 9.09518 115.572 9.38348 115.566 9.73248L115.542 11.9569C115.539 12.3575 115.202 12.6974 114.81 12.6974H111.354C110.944 12.6974 110.619 13.0282 110.616 13.45L110.577 16.9734C110.574 17.1737 110.647 17.3679 110.777 17.5196C110.908 17.6714 111.087 17.7654 111.278 17.7867C111.287 17.7867 111.348 17.7897 111.357 17.7897H114.452C114.862 17.7897 115.187 17.4589 115.19 17.0371L115.202 15.8991C115.205 15.4985 115.539 15.1586 115.933 15.1586H119.18C119.205 15.1586 119.229 15.1586 119.253 15.1616C119.59 15.1981 119.839 15.4864 119.833 15.8353L119.772 21.2493C119.769 21.6499 119.435 21.9898 119.044 21.9898H102.304C102.28 21.9807 102.253 21.9807 102.231 21.9777Z" fill="#002F87"/>
<path d="M24.6513 50.1252C24.363 50.0948 24.1567 49.8521 24.1597 49.5486L24.2022 45.7582C24.2052 45.4062 24.4966 45.1088 24.8364 45.1088H26.1748C26.5329 45.1088 26.8151 44.8174 26.8181 44.4472L26.976 30.1202C26.979 29.753 26.7058 29.4343 26.3538 29.3949C26.3447 29.3949 26.2962 29.3918 26.284 29.3918H24.9457C24.9245 29.3918 24.9032 29.3918 24.882 29.3888C24.5937 29.3584 24.3873 29.1157 24.3903 28.8122L24.4328 24.9854C24.4359 24.6333 24.7272 24.3359 25.0671 24.3359H37.376C37.3973 24.3359 37.4185 24.3359 37.4397 24.339C37.728 24.3693 37.9344 24.6121 37.9314 24.9156L37.8889 28.7424C37.8858 29.0944 37.5945 29.3918 37.2546 29.3918H35.8829C35.5248 29.3918 35.2426 29.6832 35.2396 30.0534L35.0817 44.3804C35.0787 44.5595 35.1425 44.7325 35.2608 44.869C35.3761 45.0056 35.537 45.0906 35.7069 45.1088C35.7191 45.1088 35.7676 45.1118 35.7767 45.1118H39.5368C39.8918 45.1118 40.1771 44.8205 40.1801 44.4502L40.2014 42.6203C40.2044 42.2682 40.4958 41.9708 40.8356 41.9708H45.1298C45.1511 41.9708 45.1723 41.9708 45.1935 41.9739C45.4818 42.0042 45.6882 42.247 45.6852 42.5505L45.6093 49.4849C45.6063 49.8369 45.3149 50.1343 44.975 50.1343H24.7212C24.6938 50.1282 24.6726 50.1252 24.6513 50.1252Z" fill="#002F87"/>
<path d="M0.546348 50.0887C0.258047 50.0584 0.0516858 49.8156 0.0547205 49.5121L0.0972114 45.6883C0.100246 45.3363 0.391571 45.0389 0.731463 45.0389H2.06979C2.42789 45.0389 2.71012 44.7476 2.71316 44.3773L2.87097 30.1049C2.87401 29.7377 2.60086 29.4191 2.24883 29.3796C2.2367 29.3796 2.18815 29.3766 2.17904 29.3766H0.840709C0.819466 29.3766 0.798234 29.3766 0.776991 29.3735C0.48869 29.3432 0.282329 29.1004 0.285364 28.7969L0.327855 24.9732C0.33089 24.6211 0.622215 24.3237 0.962106 24.3237H13.9053C14.4849 24.3237 15.0524 24.3541 15.5896 24.4117C16.5303 24.5149 17.4074 24.7061 18.1934 24.9853C19.4316 25.4223 20.4846 26.0323 21.3161 26.797C22.1476 27.5588 22.791 28.454 23.225 29.4616C23.659 30.4691 23.8714 31.5737 23.8592 32.7421C23.8471 33.9135 23.6256 35.0242 23.2007 36.0378C22.7759 37.0545 22.1416 37.9619 21.3161 38.7327C20.4907 39.5066 19.4528 40.1196 18.2298 40.5626C17.0098 41.0027 15.5744 41.2273 13.9721 41.2273H11.2893C10.9312 41.2273 10.649 41.5186 10.646 41.8888L10.6186 44.3075C10.6156 44.6747 10.8888 44.9934 11.2438 45.0328C11.2529 45.0328 11.3015 45.0359 11.3136 45.0359H12.6853C12.7066 45.0359 12.7278 45.0359 12.749 45.0389C13.0373 45.0692 13.2437 45.312 13.2407 45.6155L13.1982 49.4393C13.1951 49.7913 12.9038 50.0857 12.5639 50.0857H0.610065C0.588822 50.0948 0.567591 50.0917 0.546348 50.0887ZM13.6868 29.3068C13.6018 29.2977 13.5138 29.2916 13.4227 29.2916H11.4168C11.0587 29.2916 10.7765 29.5829 10.7734 29.9532L10.7127 35.4218C10.7097 35.792 10.9828 36.1107 11.3348 36.1501C11.347 36.1501 11.3956 36.1532 11.4047 36.1532H13.4076C14.057 36.1532 14.6033 35.9043 15.0767 35.3945C15.5441 34.8907 15.7868 33.9955 15.802 32.736C15.8172 31.4463 15.5926 30.5692 15.1131 30.0533C14.7095 29.6194 14.23 29.3675 13.6868 29.3068Z" fill="#002F87"/>
<path d="M47.7883 50.1251C47.5 50.0947 47.2936 49.852 47.2967 49.5485L47.3392 45.7581C47.3422 45.4061 47.6336 45.1087 47.9734 45.1087H49.1418C49.4119 45.1087 49.6486 44.9387 49.7427 44.6777L54.8926 30.3537C54.9685 30.1413 54.9382 29.8985 54.8107 29.7073C54.6954 29.5313 54.5133 29.419 54.313 29.3978C54.3009 29.3978 54.2007 29.3917 54.1795 29.3917C53.8912 29.3614 53.6848 29.1186 53.6879 28.8151L53.7303 24.9883C53.7334 24.6363 54.0247 24.3389 54.3646 24.3389H64.6949L71.5686 44.6231C71.6596 44.8871 71.8872 45.0783 72.1543 45.1056C72.1664 45.1056 72.2119 45.1087 72.2241 45.1087H73.6443C73.6656 45.1087 73.6868 45.1087 73.708 45.1117C73.9963 45.142 74.2027 45.3848 74.1997 45.6883L74.1572 49.4787C74.1542 49.8307 73.8628 50.1281 73.5229 50.1281H61.9242C61.9029 50.1281 61.8816 50.1281 61.8604 50.1251C61.5721 50.0947 61.3627 49.852 61.3688 49.5485L61.4113 45.7581C61.4143 45.4061 61.7057 45.1087 62.0455 45.1087H62.9408C63.1471 45.1087 63.3353 45.0115 63.4567 44.8446C63.5811 44.6717 63.6175 44.4501 63.5568 44.2347L63.4233 43.7734C63.3414 43.4911 63.1077 43.2878 62.8285 43.2575C62.8164 43.2575 62.7678 43.2544 62.7587 43.2544H57.193C56.9199 43.2544 56.6741 43.4335 56.586 43.7005L56.4313 44.1649C56.3615 44.3742 56.3948 44.614 56.5253 44.8021C56.6437 44.9721 56.8227 45.0844 57.02 45.1056C57.0321 45.1056 57.0807 45.1087 57.0898 45.1087H58.0761C58.0973 45.1087 58.1186 45.1087 58.1398 45.1117C58.4281 45.142 58.6345 45.3848 58.6315 45.6883L58.589 49.4787C58.5859 49.8307 58.2946 50.1281 57.9547 50.1281H47.852C47.8308 50.1281 47.8095 50.1281 47.7883 50.1251ZM60.1397 34.6722C59.9182 34.6722 59.6451 34.7905 59.5328 35.1152L58.5738 37.9497C58.5009 38.1621 58.5343 38.4019 58.6648 38.59C58.7832 38.763 58.9622 38.8723 59.1595 38.8935C59.1716 38.8935 59.2202 38.8965 59.2293 38.8965H61.0683C61.2777 38.8965 61.4659 38.7994 61.5873 38.6264C61.7117 38.4504 61.7451 38.2259 61.6783 38.0104L60.7982 35.1759C60.6768 34.7845 60.3613 34.7147 60.255 34.6904C60.2308 34.6813 60.2035 34.6722 60.1792 34.6722C60.167 34.6722 60.1519 34.6722 60.1397 34.6722Z" fill="#002F87"/>
<path d="M103.348 43.5123C103.904 44.0282 104.544 44.5897 105.364 45.0418C105.967 45.3757 106.69 45.5881 107.509 45.6761C107.8 45.7065 108.11 45.7247 108.429 45.7247C108.668 45.7247 108.963 45.6822 109.309 45.5972C109.652 45.5122 109.985 45.3848 110.295 45.2148C110.601 45.0479 110.869 44.8385 111.084 44.5957C111.299 44.353 111.412 44.0707 111.415 43.749C111.424 43.0177 110.969 42.4411 110.064 42.0374C109.193 41.652 107.961 41.2211 106.401 40.7568C105.618 40.5383 104.684 40.2712 103.594 39.9526C102.517 39.64 101.485 39.1696 100.529 38.5566C99.5762 37.9466 98.7568 37.1242 98.0892 36.1197C97.4216 35.1152 97.0938 33.7769 97.112 32.1442C97.1272 30.7664 97.4519 29.5555 98.0771 28.5389C98.7022 27.5192 99.4822 26.6604 100.387 25.9836C101.291 25.3069 102.286 24.791 103.342 24.4511C104.741 24.002 106.116 23.8472 107.433 23.9898C107.943 24.0444 108.441 24.1446 108.917 24.2872C109.679 24.5179 110.359 24.8031 110.941 25.137C111.524 25.4738 112.01 25.838 112.389 26.2173C112.553 26.3812 112.702 26.542 112.841 26.6999C112.902 26.7666 112.981 26.8091 113.063 26.8182C113.102 26.8212 113.145 26.8182 113.184 26.8061C113.302 26.7696 113.381 26.6604 113.381 26.5299L113.396 25.0216C113.399 24.6726 113.691 24.3813 114.031 24.3813H118.182C118.204 24.3813 118.225 24.3813 118.246 24.3843C118.534 24.4147 118.741 24.6544 118.738 24.9549L118.662 31.9075C118.659 32.2565 118.367 32.5478 118.027 32.5478H113.542C113.521 32.5478 113.503 32.5478 113.481 32.5448C113.336 32.5296 113.205 32.4568 113.111 32.3384C112.756 31.8923 112.349 31.4796 111.909 31.1063C111.457 30.7391 110.926 30.3931 110.322 30.0745C109.858 29.8317 109.348 29.68 108.805 29.6193C108.638 29.6011 108.465 29.592 108.289 29.592C107.767 29.592 107.327 29.6527 106.981 29.774C106.635 29.8954 106.365 30.0441 106.177 30.211C105.986 30.381 105.846 30.5479 105.764 30.7027C105.679 30.8635 105.634 30.991 105.634 31.0942C105.631 31.5069 105.867 31.868 106.341 32.1624C106.79 32.4446 107.376 32.7086 108.074 32.9545C108.759 33.1942 109.521 33.4279 110.331 33.6494C111.13 33.8679 111.891 34.1137 112.598 34.3778C113.318 34.6509 114.11 34.9877 114.95 35.3792C115.803 35.7768 116.61 36.2957 117.357 36.9209C118.097 37.543 118.722 38.3017 119.217 39.1757C119.709 40.0467 119.951 41.1119 119.939 42.3379C119.927 43.57 119.681 44.6837 119.208 45.6488C118.738 46.6169 118.073 47.4575 117.238 48.1494C116.404 48.8383 115.384 49.3724 114.21 49.7366C113.038 50.0977 111.715 50.2828 110.274 50.2828C109.485 50.2828 108.747 50.2464 108.089 50.1766C107.594 50.122 107.133 50.0492 106.723 49.9551C105.758 49.7366 104.936 49.4756 104.286 49.1752C103.637 48.8747 103.118 48.55 102.751 48.2041C102.605 48.0675 102.468 47.9309 102.344 47.8004C102.286 47.7397 102.21 47.7003 102.131 47.6912C102.089 47.6881 102.047 47.6912 102.004 47.7064C101.889 47.7458 101.813 47.852 101.813 47.9825L101.801 49.2025C101.798 49.5484 101.506 49.8428 101.166 49.8428H97.0483C97.0271 49.8428 97.0058 49.8428 96.9846 49.8398C96.6963 49.8094 96.4899 49.5697 96.493 49.2692L96.5718 41.9889C96.5749 41.6399 96.8662 41.3486 97.2061 41.3486H101.558C101.579 41.3486 101.597 41.3486 101.619 41.3516C101.728 41.3637 101.807 41.4062 101.84 41.4244C101.992 41.5094 102.08 41.646 102.107 41.6945C102.11 41.6915 102.647 42.8599 103.348 43.5123Z" fill="#002F87"/>
<path d="M89.3006 47.2208C89.1762 46.7079 88.4721 46.8536 88.4721 46.8536C87.155 47.1085 85.4192 47.1722 84.266 47.1844H83.0338C81.8806 47.1722 80.1448 47.1085 78.8277 46.8536C78.8277 46.8536 78.1236 46.7079 77.9992 47.2208L77.7413 48.899C77.7413 48.899 77.6168 49.3542 78.6851 49.682C78.6851 49.682 79.7684 50.0826 83.0338 50.1827H84.266C87.5313 50.0826 88.6147 49.682 88.6147 49.682C89.683 49.3542 89.5585 48.899 89.5585 48.899L89.3006 47.2208Z" fill="#002F87"/>
<path d="M95.5825 28.3236C95.5188 27.9442 95.4277 27.5891 95.3124 27.2705C95.2608 27.1248 95.191 27.0004 95.1242 26.876H84.2538H83.0399H72.1694C72.1027 27.0004 72.0359 27.1248 71.9813 27.2705C71.866 27.5922 71.7719 27.9442 71.7112 28.3236C71.6171 28.888 71.6141 29.5314 71.693 30.2415C71.7021 30.3143 71.7112 30.3872 71.7203 30.46C71.7264 30.4964 71.7324 30.5328 71.7355 30.5693C71.7355 30.5814 71.7385 30.5966 71.7415 30.6087C71.8326 31.2157 71.9813 31.8621 72.1876 32.5418C72.4334 33.3612 72.7582 34.2292 73.1588 35.1214C73.5594 36.0166 74.0328 36.9362 74.579 37.8678C75.0251 38.6326 75.5623 39.4823 76.2056 40.3897C76.849 41.2971 77.5986 42.2591 78.4635 43.2484C79.028 43.8918 79.6713 44.5139 80.3359 45.1725C81.2372 45.2726 82.1628 45.3242 83.0368 45.3394C83.0429 45.3394 83.052 45.3394 83.0611 45.3394C83.0976 45.3394 83.134 45.3394 83.1673 45.3424C83.2098 45.3424 83.2523 45.3424 83.2948 45.3454C83.3251 45.3454 83.3525 45.3454 83.3798 45.3454C83.4283 45.3454 83.4769 45.3454 83.5254 45.3454C83.5649 45.3454 83.6013 45.3454 83.6407 45.3454C83.6802 45.3454 83.7166 45.3454 83.7561 45.3454C83.8046 45.3454 83.8532 45.3454 83.9017 45.3454C83.929 45.3454 83.9594 45.3454 83.9867 45.3454C84.0292 45.3454 84.0717 45.3454 84.1142 45.3424C84.1506 45.3424 84.187 45.3424 84.2204 45.3394C84.2265 45.3394 84.2356 45.3394 84.2447 45.3394C85.1187 45.3242 86.0443 45.2726 86.9456 45.1725C87.6132 44.5169 88.2536 43.8948 88.818 43.2484C89.6829 42.2591 90.4325 41.2971 91.0759 40.3897C91.7192 39.4823 92.2594 38.6326 92.7025 37.8678C93.2457 36.9362 93.7191 36.0136 94.1228 35.1214C94.5234 34.2261 94.8481 33.3612 95.0939 32.5418C95.3002 31.8621 95.4459 31.2126 95.54 30.6087C95.54 30.5966 95.543 30.5814 95.546 30.5693C95.5521 30.5328 95.5582 30.4964 95.5612 30.46C95.5734 30.3872 95.5825 30.3143 95.5885 30.2415C95.6826 29.5344 95.6796 28.888 95.5825 28.3236ZM80.8306 43.2848C79.641 42.0709 78.5909 40.8328 77.6927 39.6098C76.6032 38.1197 75.7231 36.657 75.0494 35.2974C74.3757 33.9378 73.9053 32.6814 73.6291 31.6041C73.353 30.5268 73.2741 29.6315 73.3833 28.9942C73.3894 28.9608 73.3985 28.9335 73.4076 28.9002H73.7445C73.969 28.8941 74.1693 29.058 74.2755 29.237L79.7017 38.578C80.1083 39.3154 80.9216 41.0179 80.8306 43.2848ZM93.6676 31.6011C93.3914 32.6784 92.924 33.9348 92.2473 35.2944C91.5736 36.6539 90.6935 38.1197 89.604 39.6067C88.7057 40.8297 87.6557 42.0679 86.4661 43.2818C86.3751 41.0179 87.1853 39.3124 87.5981 38.5749L93.0242 29.234C93.1304 29.0519 93.3307 28.888 93.5553 28.8971H93.8921C93.8982 28.9305 93.9103 28.9548 93.9164 28.9912C94.0226 29.6285 93.9437 30.5237 93.6676 31.6011Z" fill="#002F87"/>
<path d="M83.0306 45.7125C81.319 45.6852 79.8077 45.4788 79.8077 45.4788C79.5468 45.4485 79.4618 45.6427 79.4618 45.6427L79.0916 46.5561C80.1992 46.7534 81.8865 46.8202 83.0337 46.8414H84.2658C85.4099 46.8202 87.1003 46.7534 88.2079 46.5561L87.8377 45.6427C87.8377 45.6427 87.7497 45.4485 87.4917 45.4788C87.4917 45.4788 85.9804 45.6852 84.2688 45.7125H83.0306Z" fill="#002F87"/>
<path d="M72.1815 26.4267H83.0307H84.2629H95.1121V26.4176H95.1242L95.1121 25.1612V24.9943C95.1121 24.9792 95.1121 24.961 95.109 24.9458V24.9245C95.106 24.6514 94.8936 24.4147 94.6235 24.354H94.4505H84.2598H84.2507H83.0368H83.0277H72.837H72.6641C72.394 24.4117 72.1846 24.6484 72.1785 24.9245V24.9458C72.1785 24.961 72.1755 24.9761 72.1755 24.9943V25.1612L72.1633 26.4176H72.1755V26.4267H72.1815Z" fill="#002F87"/>
</svg>
