<svg width="48" height="51" viewBox="0 0 48 51" fill="none" xmlns="http://www.w3.org/2000/svg">
<path d="M34.9604 44.9363C34.7104 43.9263 33.3304 44.2163 33.3304 44.2163C30.7404 44.7163 27.3304 44.8464 25.0704 44.8664H22.6504C20.3904 44.8464 16.9804 44.7163 14.3904 44.2163C14.3904 44.2163 13.0104 43.9263 12.7604 44.9363L12.2504 48.2364C12.2504 48.2364 12.0004 49.1363 14.1104 49.7763C14.1104 49.7763 16.2404 50.5664 22.6504 50.7564H25.0704C31.4804 50.5564 33.6104 49.7763 33.6104 49.7763C35.7104 49.1363 35.4704 48.2364 35.4704 48.2364L34.9604 44.9363Z" fill="#002F87"/>
<path d="M47.3102 7.80603C47.1902 7.05603 47.0102 6.36608 46.7802 5.73608C46.6802 5.44608 46.5402 5.20605 46.4102 4.95605H25.0502H22.6702H1.31016C1.18016 5.20605 1.05016 5.44608 0.940161 5.73608C0.710161 6.36608 0.530163 7.05603 0.410163 7.80603C0.220163 8.91603 0.220164 10.186 0.380164 11.576C0.400164 11.716 0.410161 11.8561 0.440161 12.0061C0.450161 12.0761 0.46016 12.1461 0.47016 12.2261C0.47016 12.2561 0.48017 12.276 0.48017 12.306C0.66017 13.496 0.950165 14.7661 1.35017 16.1061C1.83016 17.7161 2.47017 19.416 3.26017 21.176C4.05017 22.936 4.98018 24.746 6.05018 26.576C6.92018 28.076 7.98016 29.746 9.25016 31.526C10.5202 33.306 11.9902 35.2061 13.6902 37.1461C14.8002 38.4161 16.0602 39.636 17.3702 40.926C19.1402 41.126 20.9602 41.2261 22.6802 41.2561C22.6902 41.2561 22.7102 41.2561 22.7302 41.2561C22.8002 41.2561 22.8702 41.2561 22.9402 41.2561C23.0202 41.2561 23.1102 41.2561 23.1902 41.2561C23.2502 41.2561 23.3002 41.2561 23.3602 41.2561C23.4602 41.2561 23.5502 41.2561 23.6502 41.2561C23.7302 41.2561 23.8002 41.2561 23.8802 41.2561C23.9602 41.2561 24.0302 41.2561 24.1102 41.2561C24.2102 41.2561 24.3002 41.2561 24.4002 41.2561C24.4602 41.2561 24.5102 41.2561 24.5702 41.2561C24.6602 41.2561 24.7402 41.2561 24.8202 41.2561C24.8902 41.2561 24.9602 41.2561 25.0302 41.2561C25.0402 41.2561 25.0602 41.2561 25.0802 41.2561C26.8002 41.2261 28.6202 41.126 30.3902 40.926C31.7002 39.636 32.9602 38.4161 34.0702 37.1461C35.7702 35.2061 37.2402 33.316 38.5102 31.526C39.7702 29.746 40.8302 28.076 41.7102 26.576C42.7802 24.746 43.7102 22.936 44.5002 21.176C45.2902 19.416 45.9302 17.7161 46.4102 16.1061C46.8102 14.7661 47.1002 13.496 47.2802 12.306C47.2802 12.276 47.2902 12.2561 47.2902 12.2261C47.3002 12.1561 47.3102 12.0761 47.3202 12.0061C47.3402 11.8561 47.3602 11.716 47.3802 11.576C47.5002 10.186 47.5002 8.91603 47.3102 7.80603ZM18.3202 37.196C15.9902 34.806 13.9202 32.3761 12.1502 29.9761C10.0102 27.0461 8.28018 24.1761 6.96018 21.5061C5.63018 18.8361 4.71017 16.3661 4.17017 14.2461C3.63017 12.1361 3.47018 10.3761 3.68018 9.11609C3.69018 9.04609 3.71017 8.99604 3.73017 8.93604H4.39017C4.83017 8.92604 5.23018 9.24607 5.43018 9.59607L16.0902 27.946C16.9102 29.396 18.5002 32.746 18.3202 37.196ZM43.5402 14.2461C43.0002 16.3561 42.0802 18.8361 40.7502 21.5061C39.4202 24.1761 37.7002 27.0561 35.5602 29.9761C33.8002 32.3761 31.7302 34.816 29.3902 37.196C29.2102 32.746 30.8002 29.396 31.6102 27.946L42.2702 9.59607C42.4802 9.23607 42.8702 8.91604 43.3102 8.93604H43.9702C43.9802 9.00604 44.0002 9.05609 44.0202 9.11609C44.2402 10.3661 44.0902 12.1261 43.5402 14.2461Z" fill="#002F87"/>
<path d="M22.6502 41.9664C19.2902 41.9164 16.3202 41.5064 16.3202 41.5064C15.8102 41.4464 15.6402 41.8264 15.6402 41.8264L14.9102 43.6264C17.0902 44.0164 20.4002 44.1464 22.6502 44.1864H25.0702C27.3202 44.1464 30.6402 44.0064 32.8102 43.6264L32.0802 41.8264C32.0802 41.8264 31.9102 41.4464 31.4002 41.5064C31.4002 41.5064 28.4302 41.9064 25.0702 41.9664H22.6502Z" fill="#002F87"/>
<path d="M1.33008 4.07629H22.6401H25.0601H46.3701V4.05627H46.3901L46.3701 1.5863V1.25635C46.3701 1.22635 46.3701 1.19626 46.3701 1.16626V1.12634C46.3601 0.586343 45.9501 0.126348 45.4201 0.00634766H45.0801H25.0601H25.0401H22.6601H22.6401H2.62009H2.28006C1.75006 0.126348 1.34008 0.586343 1.33008 1.12634V1.16626C1.33008 1.19626 1.33008 1.22635 1.33008 1.25635V1.5863L1.31006 4.05627H1.33008V4.07629V4.07629Z" fill="#002F87"/>
</svg>
