<svg width="396" height="167" viewBox="0 0 396 167" fill="none" xmlns="http://www.w3.org/2000/svg">
<path d="M2.01999 73.2701C0.919987 73.1501 0.0899429 72.2001 0.0999429 71.0501L0.199919 61.7901C0.219919 60.4701 1.31995 59.3501 2.60995 59.3501H5.06991C6.41991 59.3501 7.48997 58.2601 7.49997 56.8701L7.92001 18.7201C7.93001 17.3601 6.91994 16.1901 5.59994 16.0501C5.56994 16.0501 5.36993 16.0401 5.33993 16.0401H2.87997C2.79997 16.0401 2.71998 16.0401 2.63998 16.0301C1.53998 15.9101 0.709948 14.9501 0.729948 13.8101L0.829923 4.5401C0.849923 3.2201 1.94996 2.1001 3.23996 2.1001H38.66C40.28 2.1001 41.8599 2.1801 43.3499 2.3401C45.9699 2.6201 48.4099 3.1601 50.5999 3.9201C54.0499 5.1301 56.98 6.8201 59.3 8.9201C61.62 11.0301 63.4 13.5001 64.61 16.2801C65.82 19.0701 66.41 22.1201 66.38 25.3401C66.34 28.5801 65.73 31.6501 64.55 34.4501C63.36 37.2701 61.6 39.7701 59.3 41.9001C57 44.0401 54.1099 45.7401 50.7099 46.9601C47.3099 48.1801 43.3199 48.7901 38.8499 48.7901H32.01C30.66 48.7901 29.5899 49.8801 29.5799 51.2701L29.52 56.6601C29.51 57.3201 29.75 57.9601 30.18 58.4601C30.61 58.9601 31.1999 59.2701 31.8299 59.3401C31.8599 59.3401 32.0599 59.3501 32.0899 59.3501H34.65C34.73 59.3501 34.81 59.3601 34.89 59.3601C36 59.4801 36.82 60.4301 36.81 61.5801L36.7099 70.8501C36.6999 72.1701 35.59 73.2901 34.3 73.2901H2.26999C2.17999 73.2901 2.09999 73.2801 2.01999 73.2701ZM38.05 16.0701C37.81 16.0401 37.5699 16.0301 37.3199 16.0301H32.37C31.02 16.0301 29.9499 17.1201 29.9399 18.5101L29.79 32.2601C29.77 33.6201 30.7899 34.7901 32.0999 34.9301C32.1299 34.9301 32.33 34.9401 32.36 34.9401H37.31C39.12 34.9401 40.6399 34.2601 41.9599 32.8501C43.2599 31.4601 43.9399 29.0001 43.9799 25.5301C44.0199 21.9801 43.39 19.5601 42.06 18.1301C40.91 16.9301 39.57 16.2401 38.05 16.0701Z" fill="#002F87"/>
<path d="M71.09 73.2801C69.99 73.1601 69.16 72.2101 69.18 71.0601L69.28 61.9001C69.3 60.5801 70.3999 59.4601 71.6899 59.4601H74.15C75.5 59.4601 76.5699 58.3701 76.5799 56.9801L77 18.7301C77.01 17.3701 75.9999 16.2001 74.6899 16.0601C74.6599 16.0601 74.46 16.0501 74.43 16.0501H71.97C71.89 16.0501 71.81 16.0501 71.73 16.0401C70.63 15.9201 69.8 14.9701 69.81 13.8201L69.91 4.56012C69.92 3.24012 71.0299 2.12012 72.3199 2.12012H127.48C127.56 2.12012 127.64 2.12012 127.72 2.13012C128.82 2.25012 129.65 3.20012 129.63 4.35012L129.43 22.2901C129.42 23.6101 128.31 24.7301 127.02 24.7301H116.32C116.24 24.7301 116.16 24.7301 116.08 24.7201C114.98 24.6001 114.15 23.6501 114.16 22.5001L114.2 18.7501C114.21 17.3901 113.2 16.2201 111.89 16.0801C111.86 16.0801 111.66 16.0701 111.63 16.0701H101.43C100.08 16.0701 99.01 17.1601 99 18.5501L98.9 28.0201C98.89 28.6801 99.13 29.3201 99.56 29.8201C99.99 30.3201 100.58 30.6301 101.21 30.7001C101.24 30.7001 101.44 30.7101 101.47 30.7101H112.86C112.94 30.7101 113.02 30.7101 113.1 30.7201C114.2 30.8401 115.03 31.8001 115.02 32.9401L114.94 40.2701C114.93 41.5901 113.82 42.7101 112.53 42.7101H101.14C99.79 42.7101 98.7199 43.8001 98.7099 45.1901L98.5799 56.8001C98.5699 57.4601 98.81 58.1001 99.24 58.5901C99.67 59.0901 100.26 59.4001 100.89 59.4701C100.92 59.4701 101.12 59.4801 101.16 59.4801H111.36C112.71 59.4801 113.78 58.3901 113.79 57.0001L113.83 53.2501C113.84 51.9301 114.95 50.8101 116.24 50.8101H126.94C127.02 50.8101 127.1 50.8201 127.18 50.8201C128.28 50.9401 129.11 51.8901 129.1 53.0401L128.9 70.8801C128.89 72.2001 127.78 73.3201 126.49 73.3201H71.3299C71.2499 73.2901 71.17 73.2901 71.09 73.2801Z" fill="#002F87"/>
<path d="M161.92 74.2901C158.3 73.9001 154.93 73.0001 151.89 71.6301C147.66 69.7101 144.03 67.0701 141.09 63.7801C138.16 60.4901 135.88 56.5701 134.32 52.1301C132.76 47.6901 132 42.8701 132.06 37.8001C132.12 32.7301 132.99 27.9001 134.65 23.4301C136.31 18.9601 138.7 15.0101 141.73 11.6901C144.77 8.37012 148.49 5.71012 152.79 3.78012C157.09 1.85012 161.97 0.870117 167.29 0.870117C168.81 0.870117 170.3 0.950117 171.74 1.10012C175.38 1.49012 178.76 2.39012 181.79 3.76012C186.01 5.68012 189.65 8.31012 192.59 11.6101C195.52 14.9001 197.8 18.8201 199.36 23.2601C200.92 27.7101 201.68 32.5301 201.62 37.5901C201.56 42.6601 200.69 47.4901 199.03 51.9601C197.36 56.4301 194.98 60.3801 191.95 63.7001C188.92 67.0201 185.19 69.6801 180.89 71.6201C176.59 73.5501 171.68 74.5201 166.29 74.5201C164.8 74.5201 163.33 74.4401 161.92 74.2901ZM167.81 15.8801C167.52 15.8501 167.22 15.8301 166.93 15.8301C165.47 15.8301 164.08 16.2101 162.78 16.9501C161.49 17.7001 160.36 18.9301 159.42 20.6201C158.48 22.3201 157.7 24.5801 157.11 27.3601C156.52 30.1401 156.2 33.5801 156.15 37.5801C156.11 41.6501 156.35 45.1101 156.89 47.8701C157.42 50.6301 158.16 52.9201 159.07 54.6701C160 56.4401 161.13 57.7301 162.45 58.5001C163.48 59.1001 164.59 59.4701 165.76 59.6001C167.51 59.7901 169.25 59.4201 170.79 58.5301C172.07 57.7901 173.22 56.5401 174.2 54.8201C175.18 53.0801 175.97 50.8201 176.56 48.0801C177.15 45.3301 177.47 41.8701 177.52 37.8001C177.56 33.8001 177.32 30.3601 176.78 27.5701C176.25 24.7801 175.5 22.4901 174.55 20.7701C173.59 19.0301 172.43 17.7601 171.12 16.9901C170.08 16.3801 168.97 16.0101 167.81 15.8801Z" fill="#002F87"/>
<path d="M204.77 73.2801C203.67 73.1601 202.84 72.2101 202.86 71.0601L202.96 61.7901C202.97 60.4701 204.08 59.3501 205.37 59.3501H207.83C209.18 59.3501 210.25 58.2601 210.26 56.8701L210.68 18.7201C210.69 17.3601 209.68 16.1901 208.37 16.0501C208.34 16.0501 208.14 16.0401 208.11 16.0401H205.65C205.57 16.0401 205.49 16.0401 205.41 16.0301C204.31 15.9101 203.48 14.9501 203.5 13.8101L203.6 4.5401C203.62 3.2201 204.72 2.1001 206.01 2.1001H241.43C243.04 2.1001 244.62 2.1801 246.12 2.3401C248.74 2.6201 251.18 3.1601 253.37 3.9201C256.82 5.1301 259.74 6.8101 262.07 8.9201C264.39 11.0301 266.18 13.5001 267.38 16.2801C268.59 19.0701 269.18 22.1101 269.15 25.3401C269.11 28.5901 268.5 31.6501 267.32 34.4501C266.14 37.2601 264.37 39.7701 262.07 41.9001C259.77 44.0401 256.88 45.7401 253.48 46.9601C250.08 48.1801 246.09 48.7901 241.62 48.7901H234.78C233.43 48.7901 232.36 49.8801 232.35 51.2701L232.29 56.6601C232.28 57.3201 232.52 57.9601 232.95 58.4601C233.38 58.9601 233.97 59.2701 234.6 59.3401C234.63 59.3401 234.83 59.3501 234.86 59.3501H237.42C237.5 59.3501 237.58 59.3601 237.66 59.3601C238.76 59.4801 239.59 60.4301 239.57 61.5801L239.47 70.8501C239.46 72.1701 238.35 73.2901 237.06 73.2901H205.03C204.93 73.3001 204.85 73.2901 204.77 73.2801ZM240.8 16.0801C240.56 16.0501 240.32 16.0401 240.07 16.0401H235.12C233.77 16.0401 232.7 17.1301 232.69 18.5201L232.54 32.2701C232.53 33.6301 233.54 34.8001 234.85 34.9401C234.88 34.9401 235.08 34.9501 235.11 34.9501H240.06C241.87 34.9501 243.4 34.2701 244.71 32.8601C246.01 31.4701 246.69 29.0101 246.73 25.5401C246.77 21.9901 246.14 19.5701 244.81 18.1401C243.67 16.9501 242.32 16.2501 240.8 16.0801Z" fill="#002F87"/>
<path d="M273.85 73.2901C272.75 73.1701 271.92 72.2201 271.94 71.0701L272.04 61.9101C272.06 60.5901 273.16 59.4701 274.45 59.4701H276.91C278.26 59.4701 279.33 58.3801 279.34 56.9901L279.76 18.7401C279.77 17.3801 278.76 16.2101 277.45 16.0701C277.42 16.0701 277.22 16.0601 277.19 16.0601H274.73C274.65 16.0601 274.57 16.0601 274.49 16.0501C273.39 15.9301 272.56 14.9801 272.58 13.8301L272.68 4.56012C272.69 3.24012 273.79 2.12012 275.09 2.12012H308.12C308.2 2.12012 308.28 2.12012 308.36 2.13012C309.46 2.25012 310.28 3.21012 310.27 4.35012L310.17 13.6201C310.16 14.9401 309.05 16.0601 307.76 16.0601H305.2C303.85 16.0601 302.78 17.1501 302.77 18.5401L302.35 56.7901C302.34 57.4501 302.58 58.0901 303.01 58.5901C303.44 59.0901 304.03 59.4001 304.66 59.4701C304.69 59.4701 304.89 59.4801 304.92 59.4801H314.13C315.48 59.4801 316.55 58.3901 316.56 57.0001L316.6 53.2501C316.61 51.9301 317.72 50.8101 319.01 50.8101H329.71C329.79 50.8101 329.87 50.8101 329.95 50.8201C331.05 50.9401 331.87 51.8901 331.86 53.0401L331.66 70.8801C331.65 72.2001 330.55 73.3201 329.25 73.3201H274.09C274.01 73.3001 273.93 73.3001 273.85 73.2901Z" fill="#002F87"/>
<path d="M336.97 73.2901C335.87 73.1701 335.04 72.2201 335.06 71.0701L335.16 61.9101C335.18 60.5901 336.28 59.4701 337.57 59.4701H340.03C341.38 59.4701 342.45 58.3801 342.46 56.9901L342.88 18.7401C342.89 17.3801 341.88 16.2101 340.57 16.0701C340.54 16.0701 340.34 16.0601 340.31 16.0601H337.85C337.77 16.0601 337.69 16.0601 337.61 16.0501C336.51 15.9301 335.68 14.9801 335.7 13.8301L335.8 4.56012C335.81 3.24012 336.92 2.12012 338.21 2.12012H393.37C393.45 2.12012 393.53 2.12012 393.61 2.13012C394.71 2.25012 395.54 3.20012 395.52 4.35012L395.32 22.2901C395.31 23.6101 394.21 24.7301 392.91 24.7301H382.21C382.13 24.7301 381.97 24.7201 381.97 24.7201C380.87 24.6001 380.04 23.6501 380.06 22.5001L380.1 18.7501C380.11 17.3901 379.1 16.2201 377.79 16.0801C377.76 16.0801 377.56 16.0701 377.53 16.0701H367.33C365.98 16.0701 364.91 17.1601 364.9 18.5501L364.8 28.0201C364.79 28.6801 365.03 29.3201 365.46 29.8201C365.89 30.3201 366.48 30.6301 367.11 30.7001C367.14 30.7001 367.34 30.7101 367.37 30.7101H378.76C378.84 30.7101 378.92 30.7101 379 30.7201C380.1 30.8401 380.93 31.7901 380.91 32.9401L380.83 40.2701C380.82 41.5901 379.71 42.7101 378.42 42.7101H367.03C365.68 42.7101 364.61 43.8001 364.6 45.1901L364.47 56.8001C364.46 57.4601 364.7 58.1001 365.13 58.6001C365.56 59.1001 366.15 59.4101 366.78 59.4801C366.81 59.4801 367.01 59.4901 367.04 59.4901H377.24C378.59 59.4901 379.66 58.4001 379.67 57.0101L379.71 53.2601C379.72 51.9401 380.82 50.8201 382.12 50.8201H392.82C392.9 50.8201 392.98 50.8201 393.06 50.8301C394.17 50.9501 394.99 51.9001 394.97 53.0501L394.77 70.8901C394.76 72.2101 393.66 73.3301 392.37 73.3301H337.21C337.13 73.3001 337.04 73.3001 336.97 73.2901Z" fill="#002F87"/>
<path d="M81.3298 166.04C80.3798 165.94 79.6998 165.14 79.7098 164.14L79.8498 151.65C79.8598 150.49 80.8198 149.51 81.9398 149.51H86.3498C87.5298 149.51 88.4598 148.55 88.4698 147.33L88.9899 100.12C88.9999 98.9101 88.0998 97.8601 86.9398 97.7301C86.9098 97.7301 86.7498 97.7201 86.7098 97.7201H82.2999C82.2299 97.7201 82.1598 97.7201 82.0898 97.7101C81.1398 97.6101 80.4598 96.8101 80.4698 95.8101L80.6099 83.2001C80.6199 82.0401 81.5798 81.0601 82.6998 81.0601H123.26C123.33 81.0601 123.4 81.0601 123.47 81.0701C124.42 81.1701 125.1 81.9701 125.09 82.9701L124.95 95.5801C124.94 96.7401 123.98 97.7201 122.86 97.7201H118.34C117.16 97.7201 116.23 98.6801 116.22 99.9001L115.7 147.11C115.69 147.7 115.9 148.27 116.29 148.72C116.67 149.17 117.2 149.45 117.76 149.51C117.8 149.51 117.96 149.52 117.99 149.52H130.38C131.55 149.52 132.49 148.56 132.5 147.34L132.57 141.31C132.58 140.15 133.54 139.17 134.66 139.17H148.81C148.88 139.17 148.95 139.17 149.02 139.18C149.97 139.28 150.65 140.08 150.64 141.08L150.39 163.93C150.38 165.09 149.42 166.07 148.3 166.07H81.5599C81.4699 166.05 81.3998 166.04 81.3298 166.04Z" fill="#002F87"/>
<path d="M1.89989 165.92C0.949889 165.82 0.269894 165.02 0.279894 164.02L0.419909 151.42C0.429909 150.26 1.38987 149.28 2.50987 149.28H6.91991C8.09991 149.28 9.0299 148.32 9.0399 147.1L9.55992 100.07C9.56992 98.86 8.66987 97.81 7.50987 97.68C7.46987 97.68 7.30989 97.67 7.27989 97.67H2.86986C2.79986 97.67 2.7299 97.67 2.6599 97.66C1.7099 97.56 1.0299 96.76 1.0399 95.76L1.17992 83.16C1.18992 82 2.14988 81.02 3.26988 81.02H45.9199C47.8299 81.02 49.6998 81.12 51.4698 81.31C54.5698 81.65 57.4599 82.28 60.0499 83.2C64.1299 84.64 67.5998 86.65 70.3398 89.17C73.0798 91.68 75.1999 94.63 76.6299 97.95C78.0599 101.27 78.7598 104.91 78.7198 108.76C78.6798 112.62 77.9499 116.28 76.5499 119.62C75.1499 122.97 73.0598 125.96 70.3398 128.5C67.6198 131.05 64.1999 133.07 60.1699 134.53C56.1499 135.98 51.4199 136.72 46.1399 136.72H37.2999C36.1199 136.72 35.1899 137.68 35.1799 138.9L35.0898 146.87C35.0798 148.08 35.9799 149.13 37.1499 149.26C37.1799 149.26 37.3399 149.27 37.3799 149.27H41.8999C41.9699 149.27 42.0399 149.27 42.1099 149.28C43.0599 149.38 43.7398 150.18 43.7298 151.18L43.5898 163.78C43.5798 164.94 42.6199 165.91 41.4999 165.91H2.10985C2.03985 165.94 1.96989 165.93 1.89989 165.92ZM45.1998 97.44C44.9198 97.41 44.6298 97.39 44.3298 97.39H37.7198C36.5398 97.39 35.6098 98.35 35.5998 99.57L35.3999 117.59C35.3899 118.81 36.2898 119.86 37.4498 119.99C37.4898 119.99 37.6499 120 37.6799 120H44.2799C46.4199 120 48.2199 119.18 49.7799 117.5C51.3199 115.84 52.1199 112.89 52.1699 108.74C52.2199 104.49 51.4799 101.6 49.8999 99.9C48.5699 98.47 46.9898 97.64 45.1998 97.44Z" fill="#002F87"/>
<path d="M157.57 166.04C156.62 165.94 155.94 165.14 155.95 164.14L156.09 151.65C156.1 150.49 157.06 149.51 158.18 149.51H162.03C162.92 149.51 163.7 148.95 164.01 148.09L180.98 100.89C181.23 100.19 181.13 99.3903 180.71 98.7603C180.33 98.1803 179.73 97.8103 179.07 97.7403C179.03 97.7403 178.7 97.7203 178.63 97.7203C177.68 97.6203 177 96.8203 177.01 95.8203L177.15 83.2103C177.16 82.0503 178.12 81.0703 179.24 81.0703H213.28L235.93 147.91C236.23 148.78 236.98 149.41 237.86 149.5C237.9 149.5 238.05 149.51 238.09 149.51H242.77C242.84 149.51 242.91 149.51 242.98 149.52C243.93 149.62 244.61 150.42 244.6 151.42L244.46 163.91C244.45 165.07 243.49 166.05 242.37 166.05H204.15C204.08 166.05 204.01 166.05 203.94 166.04C202.99 165.94 202.3 165.14 202.32 164.14L202.46 151.65C202.47 150.49 203.43 149.51 204.55 149.51H207.5C208.18 149.51 208.8 149.19 209.2 148.64C209.61 148.07 209.73 147.34 209.53 146.63L209.09 145.11C208.82 144.18 208.05 143.51 207.13 143.41C207.09 143.41 206.93 143.4 206.9 143.4H188.56C187.66 143.4 186.85 143.99 186.56 144.87L186.05 146.4C185.82 147.09 185.93 147.88 186.36 148.5C186.75 149.06 187.34 149.43 187.99 149.5C188.03 149.5 188.19 149.51 188.22 149.51H191.47C191.54 149.51 191.61 149.51 191.68 149.52C192.63 149.62 193.31 150.42 193.3 151.42L193.16 163.91C193.15 165.07 192.19 166.05 191.07 166.05H157.78C157.71 166.05 157.64 166.05 157.57 166.04ZM198.27 115.12C197.54 115.12 196.64 115.51 196.27 116.58L193.11 125.92C192.87 126.62 192.98 127.41 193.41 128.03C193.8 128.6 194.39 128.96 195.04 129.03C195.08 129.03 195.24 129.04 195.27 129.04H201.33C202.02 129.04 202.64 128.72 203.04 128.15C203.45 127.57 203.56 126.83 203.34 126.12L200.44 116.78C200.04 115.49 199 115.26 198.65 115.18C198.57 115.15 198.48 115.12 198.4 115.12C198.36 115.12 198.31 115.12 198.27 115.12Z" fill="#002F87"/>
<path d="M340.65 144.25C342.48 145.95 344.59 147.8 347.29 149.29C349.28 150.39 351.66 151.09 354.36 151.38C355.32 151.48 356.34 151.54 357.39 151.54C358.18 151.54 359.15 151.4 360.29 151.12C361.42 150.84 362.52 150.42 363.54 149.86C364.55 149.31 365.43 148.62 366.14 147.82C366.85 147.02 367.22 146.09 367.23 145.03C367.26 142.62 365.76 140.72 362.78 139.39C359.91 138.12 355.85 136.7 350.71 135.17C348.13 134.45 345.05 133.57 341.46 132.52C337.91 131.49 334.51 129.94 331.36 127.92C328.22 125.91 325.52 123.2 323.32 119.89C321.12 116.58 320.04 112.17 320.1 106.79C320.15 102.25 321.22 98.2602 323.28 94.9102C325.34 91.5502 327.91 88.7202 330.89 86.4902C333.87 84.2602 337.15 82.5602 340.63 81.4402C345.24 79.9602 349.77 79.4502 354.11 79.9202C355.79 80.1002 357.43 80.4302 359 80.9002C361.51 81.6602 363.75 82.6002 365.67 83.7002C367.59 84.8102 369.19 86.0102 370.44 87.2602C370.98 87.8002 371.47 88.3302 371.93 88.8502C372.13 89.0702 372.39 89.2102 372.66 89.2402C372.79 89.2502 372.93 89.2402 373.06 89.2002C373.45 89.0802 373.71 88.7202 373.71 88.2902L373.76 83.3202C373.77 82.1702 374.73 81.2102 375.85 81.2102H389.53C389.6 81.2102 389.67 81.2102 389.74 81.2202C390.69 81.3202 391.37 82.1102 391.36 83.1002L391.11 106.01C391.1 107.16 390.14 108.12 389.02 108.12H374.24C374.17 108.12 374.11 108.12 374.04 108.11C373.56 108.06 373.13 107.82 372.82 107.43C371.65 105.96 370.31 104.6 368.86 103.37C367.37 102.16 365.62 101.02 363.63 99.9702C362.1 99.1702 360.42 98.6702 358.63 98.4702C358.08 98.4102 357.51 98.3802 356.93 98.3802C355.21 98.3802 353.76 98.5802 352.62 98.9802C351.48 99.3802 350.59 99.8702 349.97 100.42C349.34 100.98 348.88 101.53 348.61 102.04C348.33 102.57 348.18 102.99 348.18 103.33C348.17 104.69 348.95 105.88 350.51 106.85C351.99 107.78 353.92 108.65 356.22 109.46C358.48 110.25 360.99 111.02 363.66 111.75C366.29 112.47 368.8 113.28 371.13 114.15C373.5 115.05 376.11 116.16 378.88 117.45C381.69 118.76 384.35 120.47 386.81 122.53C389.25 124.58 391.31 127.08 392.94 129.96C394.56 132.83 395.36 136.34 395.32 140.38C395.28 144.44 394.47 148.11 392.91 151.29C391.36 154.48 389.17 157.25 386.42 159.53C383.67 161.8 380.31 163.56 376.44 164.76C372.58 165.95 368.22 166.56 363.47 166.56C360.87 166.56 358.44 166.44 356.27 166.21C354.64 166.03 353.12 165.79 351.77 165.48C348.59 164.76 345.88 163.9 343.74 162.91C341.6 161.92 339.89 160.85 338.68 159.71C338.2 159.26 337.75 158.81 337.34 158.38C337.15 158.18 336.9 158.05 336.64 158.02C336.5 158.01 336.36 158.02 336.22 158.07C335.84 158.2 335.59 158.55 335.59 158.98L335.55 163C335.54 164.14 334.58 165.11 333.46 165.11H319.89C319.82 165.11 319.75 165.11 319.68 165.1C318.73 165 318.05 164.21 318.06 163.22L318.32 139.23C318.33 138.08 319.29 137.12 320.41 137.12H334.75C334.82 137.12 334.88 137.12 334.95 137.13C335.31 137.17 335.57 137.31 335.68 137.37C336.18 137.65 336.47 138.1 336.56 138.26C336.57 138.25 338.34 142.1 340.65 144.25Z" fill="#002F87"/>
<path d="M294.36 156.47C293.95 154.78 291.63 155.26 291.63 155.26C287.29 156.1 281.57 156.31 277.77 156.35H273.71C269.91 156.31 264.19 156.1 259.85 155.26C259.85 155.26 257.53 154.78 257.12 156.47L256.27 162C256.27 162 255.86 163.5 259.38 164.58C259.38 164.58 262.95 165.9 273.71 166.23H277.77C288.53 165.9 292.1 164.58 292.1 164.58C295.62 163.5 295.21 162 295.21 162L294.36 156.47Z" fill="#002F87"/>
<path d="M315.06 94.2002C314.85 92.9502 314.55 91.7802 314.17 90.7302C314 90.2502 313.77 89.8402 313.55 89.4302H277.73H273.73H237.91C237.69 89.8402 237.47 90.2502 237.29 90.7302C236.91 91.7902 236.6 92.9502 236.4 94.2002C236.09 96.0602 236.08 98.1802 236.34 100.52C236.37 100.76 236.4 101 236.43 101.24C236.45 101.36 236.47 101.48 236.48 101.6C236.48 101.64 236.49 101.69 236.5 101.73C236.8 103.73 237.29 105.86 237.97 108.1C238.78 110.8 239.85 113.66 241.17 116.6C242.49 119.55 244.05 122.58 245.85 125.65C247.32 128.17 249.09 130.97 251.21 133.96C253.33 136.95 255.8 140.12 258.65 143.38C260.51 145.5 262.63 147.55 264.82 149.72C267.79 150.05 270.84 150.22 273.72 150.27C273.74 150.27 273.77 150.27 273.8 150.27C273.92 150.27 274.04 150.27 274.15 150.28C274.29 150.28 274.43 150.28 274.57 150.29C274.67 150.29 274.76 150.29 274.85 150.29C275.01 150.29 275.17 150.29 275.33 150.29C275.46 150.29 275.58 150.29 275.71 150.29C275.84 150.29 275.96 150.29 276.09 150.29C276.25 150.29 276.41 150.29 276.57 150.29C276.66 150.29 276.76 150.29 276.85 150.29C276.99 150.29 277.13 150.29 277.27 150.28C277.39 150.28 277.51 150.28 277.62 150.27C277.64 150.27 277.67 150.27 277.7 150.27C280.58 150.22 283.63 150.05 286.6 149.72C288.8 147.56 290.91 145.51 292.77 143.38C295.62 140.12 298.09 136.95 300.21 133.96C302.33 130.97 304.11 128.17 305.57 125.65C307.36 122.58 308.92 119.54 310.25 116.6C311.57 113.65 312.64 110.8 313.45 108.1C314.13 105.86 314.61 103.72 314.92 101.73C314.92 101.69 314.93 101.64 314.94 101.6C314.96 101.48 314.98 101.36 314.99 101.24C315.03 101 315.06 100.76 315.08 100.52C315.39 98.1902 315.38 96.0602 315.06 94.2002ZM266.45 143.5C262.53 139.5 259.07 135.42 256.11 131.39C252.52 126.48 249.62 121.66 247.4 117.18C245.18 112.7 243.63 108.56 242.72 105.01C241.81 101.46 241.55 98.5102 241.91 96.4102C241.93 96.3002 241.96 96.2102 241.99 96.1002H243.1C243.84 96.0802 244.5 96.6202 244.85 97.2102L262.73 127.99C264.07 130.42 266.75 136.03 266.45 143.5ZM308.75 105C307.84 108.55 306.3 112.69 304.07 117.17C301.85 121.65 298.95 126.48 295.36 131.38C292.4 135.41 288.94 139.49 285.02 143.49C284.72 136.03 287.39 130.41 288.75 127.98L306.63 97.2002C306.98 96.6002 307.64 96.0602 308.38 96.0902H309.49C309.51 96.2002 309.55 96.2802 309.57 96.4002C309.92 98.5002 309.66 101.45 308.75 105Z" fill="#002F87"/>
<path d="M273.7 151.5C268.06 151.41 263.08 150.73 263.08 150.73C262.22 150.63 261.94 151.27 261.94 151.27L260.72 154.28C264.37 154.93 269.93 155.15 273.71 155.22H277.77C281.54 155.15 287.11 154.93 290.76 154.28L289.54 151.27C289.54 151.27 289.25 150.63 288.4 150.73C288.4 150.73 283.42 151.41 277.78 151.5H273.7Z" fill="#002F87"/>
<path d="M237.95 87.9501H273.7H277.76H313.51V87.9201H313.55L313.51 83.7801V83.2301C313.51 83.1801 313.51 83.1201 313.5 83.0701V83.0001C313.49 82.1001 312.79 81.3201 311.9 81.1201H311.33H277.75H277.72H273.72H273.69H240.11H239.54C238.65 81.3101 237.96 82.0901 237.94 83.0001V83.0701C237.94 83.1201 237.93 83.1701 237.93 83.2301V83.7801L237.89 87.9201H237.93V87.9501H237.95Z" fill="#002F87"/>
</svg>
