<svg width="90" height="90" viewBox="0 0 90 90" fill="none" xmlns="http://www.w3.org/2000/svg">
<path d="M0 89.1892L6.40429 65.4169C1.23939 56.1563 -0.40155 45.3501 1.78258 34.9811C3.96672 24.612 9.82942 15.3758 18.2949 8.96716C26.7603 2.55854 37.2607 -0.592569 47.8691 0.0920641C58.4776 0.776697 68.4825 5.25115 76.048 12.6944C83.6135 20.1376 88.232 30.0502 89.0562 40.6134C89.8803 51.1766 86.8548 61.6817 80.5347 70.201C74.2146 78.7203 65.024 84.6824 54.6492 86.9932C44.2745 89.304 33.4116 87.8086 24.0539 82.7812L0 89.1892Z" fill="#00D95F"/>
<path d="M33.0078 65.198L31.987 64.5924L22.7649 67.0493L25.2218 57.9137L24.5816 56.8583C22.2355 53.038 20.9957 48.6416 21 44.1584C20.992 38.7516 22.7728 33.494 26.0648 29.2048C29.3569 24.9157 33.9753 21.8361 39.2003 20.4458C44.4254 19.0556 49.9636 19.4328 54.9519 21.5187C59.9402 23.6046 64.0983 27.2821 66.7784 31.978C69.4584 36.6739 70.5098 42.1244 69.7687 47.4802C69.0276 52.8361 66.5356 57.7963 62.6811 61.588C58.8266 65.3796 53.8261 67.7897 48.4588 68.4427C43.0915 69.0957 37.659 67.9548 33.0078 65.198Z" fill="#00D95F"/>
<path d="M14 75.6221L18.452 59.0967C14.8616 52.6592 13.7209 45.1472 15.2392 37.9392C16.7575 30.7312 20.8329 24.3106 26.7177 19.8556C32.6025 15.4006 39.9018 13.2101 47.2763 13.6861C54.6508 14.162 61.6057 17.2724 66.8649 22.4466C72.124 27.6207 75.3346 34.5115 75.9075 41.8545C76.4804 49.1975 74.3772 56.5002 69.9838 62.4224C65.5904 68.3446 59.2015 72.4892 51.9895 74.0955C44.7775 75.7019 37.2261 74.6623 30.7211 71.1676L14 75.6221ZM31.5274 64.9836L32.5615 65.595C37.2732 68.3784 42.7764 69.5303 48.2135 68.871C53.6506 68.2117 58.7162 65.7785 62.6209 61.9503C66.5256 58.1222 69.05 53.1142 69.8007 47.7069C70.5515 42.2995 69.4864 36.7966 66.7715 32.0555C64.0565 27.3145 59.8443 23.6016 54.7911 21.4957C49.7379 19.3897 44.1276 19.0088 38.8346 20.4125C33.5416 21.8161 28.8631 24.9253 25.5282 29.2557C22.1933 33.5861 20.3894 38.8943 20.3975 44.3531C20.3931 48.8794 21.6491 53.3181 24.0257 57.1751L24.6742 58.2407L22.1853 67.4642L31.5274 64.9836Z" fill="white"/>
<path fill-rule="evenodd" clip-rule="evenodd" d="M54.9281 47.8537C54.3978 47.4457 53.7768 47.1586 53.1125 47.0142C52.4482 46.8697 51.758 46.8718 51.0947 47.0202C50.098 47.415 49.454 48.9066 48.81 49.6523C48.6741 49.8311 48.4746 49.9565 48.2487 50.005C48.0229 50.0534 47.7863 50.0216 47.5832 49.9156C43.9343 48.5526 40.8757 46.0532 38.9043 42.8233C38.7362 42.6217 38.6566 42.3658 38.6823 42.1094C38.7081 41.853 38.8371 41.6161 39.0423 41.4487C39.7606 40.7705 40.288 39.9306 40.5757 39.0066C40.6396 37.9874 40.3947 36.9721 39.8703 36.0819C39.4649 34.8339 38.6934 33.7226 37.6469 32.8794C37.1072 32.6479 36.5087 32.5703 35.9237 32.6559C35.3388 32.7416 34.7923 32.9868 34.3502 33.362C33.5827 33.9935 32.9735 34.7811 32.5674 35.6669C32.1614 36.5527 31.9689 37.514 32.0041 38.4802C32.0065 39.0227 32.0785 39.5629 32.2188 40.0887C32.5748 41.352 33.1224 42.559 33.8441 43.6714C34.3649 44.5236 34.933 45.3485 35.5462 46.1428C37.5389 48.7515 40.0438 50.9665 42.9218 52.6647C44.366 53.5277 45.9095 54.2294 47.5219 54.7559C49.1968 55.4799 51.0461 55.7579 52.8734 55.5602C53.9145 55.4099 54.9009 55.0179 55.7459 54.4186C56.5908 53.8194 57.2684 53.0313 57.7189 52.1237C57.9836 51.5754 58.064 50.9624 57.9489 50.3689C57.6729 49.1552 55.9708 48.4386 54.9281 47.8537Z" fill="white"/>
</svg>
